<?xml version="1.0" encoding="UTF-8" standalone="no"?>
<!-- Created with Inkscape (http://www.inkscape.org/) -->

<svg
   xmlns:svg="http://www.w3.org/2000/svg"
   xmlns="http://www.w3.org/2000/svg"
   version="1.0"
   width="305"
   height="305"
   id="svg4689">
  <defs
     id="defs4691" />
  <g
     transform="translate(-51.114286,-378.39074)"
     id="layer1">
    <path
       d="m 145.75714,388.74788 115.35714,-0.71428 85.71429,85.35714 0,117.14286 -84.64286,82.85714 -117.14286,0.35714 -84.642851,-83.57142 0.357142,-116.78572 84.999999,-84.64286 z"
       id="path5211"
       style="fill:#ffffff;fill-opacity:1;fill-rule:evenodd;stroke:#000000;stroke-width:14.60000038;stroke-linecap:butt;stroke-linejoin:miter;stroke-miterlimit:4;stroke-opacity:1;stroke-dasharray:none" />
    <path
       d="m 462.85715,375.93362 a 115,120 0 1 1 -230,0 115,120 0 1 1 230,0 z"
       transform="matrix(0.55900625,0,0,0.53125,8.5751643,331.77422)"
       id="path5213"
       style="fill:#000000;fill-opacity:1;fill-rule:evenodd;stroke:#000000;stroke-width:0;stroke-linecap:butt;stroke-linejoin:miter;stroke-miterlimit:4;stroke-opacity:1;stroke-dasharray:none" />
    <path
       d="m 235.1366,407.69626 c -1.79369,0.0182 -3.58737,0.037 -5.38116,0.042 -2.27968,0.0105 -4.55936,0.0249 -6.83908,0.0205 -2.29038,0.002 -4.58071,-0.0213 -6.87111,-0.0156 -3.04219,0.002 -6.08435,-0.0161 -9.12653,-0.0238 -3.30416,-0.009 -6.60831,-0.0272 -9.9125,-0.0231 -1.98468,-0.005 -3.96932,0.0114 -5.95398,0.0156 -1.50258,0.003 -3.00523,-0.008 -4.50772,0.0128 -1.72307,0.0125 -3.4459,0.0443 -5.16884,0.0669 -2.00646,0.0174 -4.01291,0.0352 -6.01945,0.04 -1.60599,0.008 -3.21203,0.01 -4.81796,-0.008 -1.30496,-0.0121 -2.61,-0.0206 -3.91492,-0.0356 -1.1935,-0.0305 -2.387,-0.0609 -3.5805,-0.0914 -0.55125,0.0342 -1.10002,0.10511 -1.64062,0.21875 -0.51123,0.14337 -1.06181,0.26967 -1.46476,0.63707 -0.34551,0.26713 -0.64386,0.63651 -0.73583,1.07153 -0.0801,0.19105 -0.0644,0.40242 -0.0963,0.6039 0.4375,1.31771 0.875,2.63541 1.3125,3.95312 0.42193,1.07496 0.8418,2.1508 1.28125,3.21875 0.22489,0.47824 0.40415,0.98374 0.71488,1.41592 0.25642,0.39767 0.57301,0.7584 0.957,1.03721 0.40441,0.24947 0.87954,0.3404 1.34969,0.32711 0.49681,-0.009 0.99265,0.0337 1.48936,0.0323 2.51691,10e-4 5.03382,-0.005 7.5507,0.0102 2.44817,0.011 4.89638,0.003 7.34457,0.005 3.53379,0.002 7.06756,-0.0155 10.60133,-0.0232 9.0907,-0.0272 18.18138,-0.0612 27.27207,-0.0911 6.67164,-0.0233 13.34329,-0.0481 20.01492,-0.0744 0.78741,-0.007 1.57462,-0.0234 2.36173,-0.0457 0.49182,-0.0456 0.99786,-0.0332 1.46875,-0.20312 0.40879,-0.13141 0.73517,-0.43976 0.9344,-0.81462 0.23593,-0.44656 0.39139,-0.92944 0.5834,-1.39546 0.2014,-0.5137 0.4037,-1.02705 0.6072,-1.53992 0.17585,-0.47903 0.35045,-0.96166 0.47431,-1.45538 0.18416,-0.78868 0.4576,-1.57737 0.64176,-2.36605 0.18913,-0.53345 0.1816,-1.09484 0.3267,-1.64199 0.0927,-0.28729 0.057,-0.59585 0.0673,-0.89344 -0.0237,-0.48408 -0.0284,-1.00598 -0.31316,-1.42065 -0.23347,-0.29873 -0.64761,-0.33585 -0.97813,-0.47249 -1.29764,0.002 -2.59528,4.4e-4 -3.89287,-0.0126 -0.61948,-0.009 -1.23933,0.01 -1.85832,-0.0226 -0.49194,-0.0154 -0.97974,-0.10058 -1.4738,-0.0742 -0.93542,4.7e-4 -1.87084,0.0109 -2.80626,0.0156 z"
       id="path3195"
       style="fill:#000000;fill-opacity:1;fill-rule:evenodd;stroke:#000000;stroke-width:0;stroke-linecap:butt;stroke-linejoin:miter;stroke-miterlimit:4;stroke-opacity:1;stroke-dasharray:none" />
    <path
       d="m 324.12432,563.95938 c 0.0279,-24.57845 -0.005,-49.15645 -0.1875,-73.73437 -0.14337,-0.51123 -0.26968,-1.06181 -0.63708,-1.46476 -0.26712,-0.34551 -0.6365,-0.64386 -1.07152,-0.73583 -1.50762,-0.13789 -3.11792,0.73841 -4.55703,1.21621 -1.07495,0.42193 -2.1508,0.8418 -3.21875,1.28125 -0.47823,0.22489 -0.98373,0.40415 -1.41592,0.71488 -0.39767,0.25642 -0.7584,0.57301 -1.0372,0.957 -0.24947,0.40441 -0.3404,0.87954 -0.32712,1.34969 -0.10356,24.75658 0.0407,49.51584 0.14079,74.27295 0.007,0.78741 0.0234,1.57462 0.0457,2.36173 0.0456,0.49182 0.0332,0.99786 0.20313,1.46875 0.13141,0.40879 0.43976,0.73517 0.81462,0.9344 0.44656,0.23593 0.92943,0.39139 1.39545,0.5834 0.5137,0.2014 1.02705,0.4037 1.53993,0.6072 0.47902,0.17585 0.96165,0.35045 1.45538,0.47431 0.78868,0.18416 1.57736,0.4576 2.36605,0.64176 0.53344,0.18913 1.09484,0.1816 1.64198,0.3267 0.28729,0.0927 0.5646,0.057 0.8622,0.0673 1.08978,0.038 1.55827,-0.31958 1.89314,-1.29129 0.0682,-6.84454 0.0993,-6.68679 0.0937,-10.03125 z"
       id="path5236"
       style="fill:#000000;fill-opacity:1;fill-rule:evenodd;stroke:#000000;stroke-width:0;stroke-linecap:butt;stroke-linejoin:miter;stroke-miterlimit:4;stroke-opacity:1;stroke-dasharray:none" />
    <path
       d="m 80.348561,489.31099 c 0.306715,27.25519 0.21377,54.51554 0.15443,81.77328 0.02897,0.50503 0.116825,1.00374 0.196115,1.50261 0.11589,0.40422 0.225845,0.8141 0.41939,1.18928 0.108615,0.18685 0.25173,0.35117 0.39311,0.51385 0.20901,0.16258 0.394215,0.37651 0.65625,0.45312 0.125405,0.0569 0.26324,0.0735 0.390625,0.125 0.15356,0.0388 0.31199,0.0451 0.46875,0.0625 1.31771,-0.4375 2.635415,-0.875 3.953125,-1.3125 1.072915,-0.42708 2.145835,-0.85416 3.21875,-1.28125 0.476165,-0.22438 0.973575,-0.41344 1.40625,-0.71875 0.394145,-0.26418 0.744955,-0.58743 1.046875,-0.95312 0.07525,-0.15858 0.173285,-0.30845 0.203125,-0.48438 0.04957,-0.18491 0.11212,-0.36858 0.109375,-0.5625 0.02111,-0.45659 0.01416,-0.91363 0.03484,-1.37027 0.01638,-0.57019 0.01158,-1.14059 0.01204,-1.71094 3.95e-4,-2.18048 -7.9e-4,-4.36096 5.9e-4,-6.54144 0.0065,-1.14243 0.01833,-2.28485 0.01503,-3.42731 -7.25e-4,-2.00626 0.0015,-4.01252 -0.0011,-6.01877 -0.017,-5.394 -0.03182,-10.78801 -0.05024,-16.182 -0.03517,-9.39246 -0.07137,-18.78492 -0.105885,-28.17738 -0.01009,-3.71667 -0.02017,-7.43334 -0.03026,-11.15001 -0.0222,-0.57607 -0.03878,-1.15229 -0.04519,-1.72877 0.0021,-0.476 -0.0027,-0.95292 -0.07466,-1.42453 -0.02184,-0.36867 -0.129065,-0.73181 -0.31765,-1.04983 -0.168875,-0.24215 -0.389115,-0.44976 -0.660955,-0.57104 -0.23742,-0.14113 -0.49194,-0.24716 -0.7522,-0.33749 -0.71529,-0.28345 -1.43194,-0.56343 -2.149345,-0.84147 -0.482875,-0.18163 -0.970705,-0.34902 -1.46875,-0.48437 -0.541835,-0.11452 -1.07076,-0.27959 -1.601705,-0.43525 -0.51966,-0.12976 -1.02967,-0.30848 -1.5638,-0.3707 -0.35659,-0.0406 -0.702965,-0.13564 -1.053245,-0.20968 -0.223285,-0.0241 -0.447805,-0.0135 -0.671875,-0.0156 -0.887895,0.34246 -2.05599,0.57236 -2.131795,1.73973 z"
       id="path5238"
       style="fill:#000000;fill-opacity:1;fill-rule:evenodd;stroke:#000000;stroke-width:0;stroke-linecap:butt;stroke-linejoin:miter;stroke-miterlimit:4;stroke-opacity:1;stroke-dasharray:none" />
    <path
       d="m 265.90966,640.65955 c 1.27018,-1.26661 2.53998,-2.53359 3.81945,-3.79083 1.62318,-1.60073 3.24361,-3.20428 4.87725,-4.79436 1.63712,-1.60178 3.29123,-3.1861 4.9254,-4.79091 2.17443,-2.12763 4.363,-4.24074 6.54428,-6.36133 2.36972,-2.30261 4.74557,-4.59893 7.10594,-6.91115 1.42294,-1.38355 2.83104,-2.78223 4.24759,-4.1723 1.07289,-1.05198 2.15524,-2.09437 3.21515,-3.15951 1.22368,-1.21315 2.43367,-2.43996 3.65023,-3.66021 1.4229,-1.41476 2.84556,-2.82975 4.27739,-4.23549 1.14294,-1.12825 2.29057,-2.25178 3.45175,-3.36127 0.94183,-0.90335 1.88118,-1.80934 2.82499,-2.71059 0.87494,-0.81232 1.74987,-1.62464 2.62481,-2.43696 0.37035,-0.40973 0.71332,-0.84396 1.02055,-1.30306 0.26545,-0.45983 0.57098,-0.93496 0.60241,-1.47935 0.0604,-0.43253 0.0157,-0.90523 -0.22257,-1.28065 -0.0762,-0.19266 -0.23514,-0.33287 -0.35319,-0.49923 -1.23383,-0.63671 -2.46767,-1.27343 -3.70151,-1.91014 -1.05304,-0.47397 -2.10523,-0.95003 -3.16592,-1.40674 -0.49507,-0.18488 -0.97657,-0.42115 -1.50086,-0.5131 -0.46133,-0.10523 -0.93988,-0.14198 -1.40936,-0.073 -0.46361,0.10421 -0.86699,0.37123 -1.19398,0.70931 -0.34906,0.35362 -0.73354,0.66963 -1.08779,1.01781 -1.80091,1.75828 -3.597,3.5215 -5.40767,5.26974 -1.75869,1.70314 -3.50419,3.41983 -5.25692,5.12909 -2.52921,2.46796 -5.04418,4.95044 -7.56628,7.42565 -6.48301,6.37277 -12.96128,12.75035 -19.44235,19.12509 -4.75553,4.67935 -9.51004,9.35975 -14.26347,14.04123 -0.55847,0.55513 -1.10985,1.11722 -1.65726,1.68325 -0.31989,0.37634 -0.69051,0.72112 -0.90854,1.17176 -0.20055,0.37969 -0.21849,0.82833 -0.099,1.23568 0.14335,0.48428 0.36962,0.93831 0.55799,1.40581 0.21496,0.50818 0.42904,1.01672 0.64192,1.52578 0.20901,0.46551 0.42143,0.93274 0.6779,1.37243 0.41947,0.6928 0.77509,1.448 1.19457,2.1408 0.23754,0.51372 0.63528,0.90999 0.91388,1.40274 0.13446,0.27028 0.37565,0.46602 0.5763,0.68604 0.35528,0.32965 0.72335,0.69969 1.21685,0.79723 0.37576,0.0505 0.69792,-0.21238 1.02981,-0.34564 0.92705,-0.908 1.85593,-1.81411 2.79312,-2.71165 0.44946,-0.42642 0.87955,-0.87317 1.34495,-1.28257 0.36264,-0.33278 0.77105,-0.61278 1.10596,-0.97696 0.66872,-0.65408 1.33045,-1.31533 1.99623,-1.97241 z"
       id="path5240"
       style="fill:#000000;fill-opacity:1;fill-rule:evenodd;stroke:#000000;stroke-width:0;stroke-linecap:butt;stroke-linejoin:miter;stroke-miterlimit:4;stroke-opacity:1;stroke-dasharray:none" />
    <g
       transform="matrix(0.5,0,0,0.5,27.435713,339.17393)"
       id="g5251"
       style="fill:#000000;fill-opacity:1">
      <path
         d="m 276.56142,175.85993 c 3.76863,9.54651 0.34915,1.27784 5.27971,13.50686 2.72224,6.14971 4.62235,5.35696 5.20718,5.39247 23.46767,0.23883 10.55183,0.15521 19.57882,0.25928 4.82618,-0.0215 27.31392,0.11124 32.14008,0.089 4.45973,-0.17242 6.42045,-0.26167 6.95276,-3.02322 -0.38218,-14.36826 -0.21035,-13.26362 -0.23314,-16.15716 -1.34173,-2.23434 -1.48794,-5.32851 -9.87377,-5.10866 -19.18204,-0.34209 -12.08756,0.0138 -53.39893,-0.0374 -1.54174,-0.0495 -6.76393,1.30277 -5.65271,5.07891 z"
         id="path3193"
         style="fill:#000000;fill-opacity:1;fill-rule:evenodd;stroke:#000000;stroke-width:0;stroke-linecap:butt;stroke-linejoin:miter;stroke-miterlimit:4;stroke-opacity:1;stroke-dasharray:none" />
      <path
         d="m 426.44156,175.39226 c -3.76863,9.73996 -0.34915,1.30373 -5.27971,13.78057 -2.72224,6.27431 -4.62235,5.4655 -5.20718,5.50173 -23.46767,0.24367 -10.37506,0.17 -19.40205,0.27618 -4.82618,-0.0219 -27.49069,0.10185 -32.31685,0.0791 -4.45973,-0.17591 -6.42045,-0.26697 -6.95276,-3.08448 0.38218,-14.65942 0.21035,-13.53239 0.23314,-16.48457 1.34173,-2.27961 1.48794,-5.43649 9.87377,-5.21218 19.18204,-0.34902 12.08756,0.0141 53.39893,-0.0382 1.54174,-0.0505 6.76393,1.32917 5.65271,5.18183 z"
         id="path5249"
         style="fill:#000000;fill-opacity:1;fill-rule:evenodd;stroke:#000000;stroke-width:0;stroke-linecap:butt;stroke-linejoin:miter;stroke-miterlimit:4;stroke-opacity:1;stroke-dasharray:none" />
    </g>
    <g
       transform="matrix(-0.3480094,-0.3590118,0.3590118,-0.3480094,187.00849,791.96099)"
       id="g5255"
       style="fill:#000000;fill-opacity:1">
      <path
         d="m 276.56142,175.85993 c 3.76863,9.54651 0.34915,1.27784 5.27971,13.50686 2.72224,6.14971 4.62235,5.35696 5.20718,5.39247 17.78246,0.24484 34.44034,0.55572 51.7189,0.34824 4.45973,-0.17242 6.42045,-0.26167 6.95276,-3.02322 -0.38218,-14.36826 -0.21035,-13.26362 -0.23314,-16.15716 -1.34173,-2.23434 -1.48794,-5.32851 -9.87377,-5.10866 -19.18204,-0.34209 -12.08756,0.0138 -53.39893,-0.0374 -1.54174,-0.0495 -6.76393,1.30277 -5.65271,5.07891 z"
         id="path5257"
         style="fill:#000000;fill-opacity:1;fill-rule:evenodd;stroke:#000000;stroke-width:0;stroke-linecap:butt;stroke-linejoin:miter;stroke-miterlimit:4;stroke-opacity:1;stroke-dasharray:none" />
      <path
         d="m 426.44156,175.39226 c -3.76863,9.73996 -0.34915,1.30373 -5.27971,13.78057 -2.72224,6.27431 -4.62235,5.4655 -5.20718,5.50173 -23.46767,0.24367 -10.41925,0.74452 -19.44624,0.8507 -4.82618,-0.0219 -27.4465,-0.47267 -32.27266,-0.4954 -4.45973,-0.17591 -6.42045,-0.26697 -6.95276,-3.08448 0.38218,-14.65942 0.21035,-13.53239 0.23314,-16.48457 1.34173,-2.27961 1.48794,-5.43649 9.87377,-5.21218 19.18204,-0.34902 12.08756,0.0141 53.39893,-0.0382 1.54174,-0.0505 6.76393,1.32917 5.65271,5.18183 z"
         id="path5259"
         style="fill:#000000;fill-opacity:1;fill-rule:evenodd;stroke:#000000;stroke-width:0;stroke-linecap:butt;stroke-linejoin:miter;stroke-miterlimit:4;stroke-opacity:1;stroke-dasharray:none" />
    </g>
    <g
       transform="matrix(0,-0.5,0.5,0,11.88223,706.67131)"
       id="g5261"
       style="fill:#000000;fill-opacity:1">
      <path
         d="m 317.21875,170.6875 c -7.51458,0.0302 -15.02914,0.0688 -22.54373,0.0937 -5.24962,0.13179 -10.66919,-0.56546 -15.79719,0.8505 -0.8467,0.39117 -1.60127,1.00778 -2.09688,1.80626 -0.44934,0.88781 -0.48026,1.99181 -0.0293,2.88941 1.16499,3.11782 2.34519,6.23028 3.58487,9.31926 0.50239,1.24277 1.00479,2.48555 1.50719,3.72832 0.49305,0.97326 0.92474,1.97995 1.49344,2.91287 0.62157,0.84466 1.2659,1.75574 2.22955,2.23717 0.84339,0.45606 1.82603,0.15681 2.73637,0.22496 5.50313,0.083 11.00626,0.16671 16.50939,0.25 1.10169,0.0432 2.20352,0.0781 3.30621,0.0625 2.9531,0.0122 5.90615,0.041 8.85932,0.0312 7.26774,0 14.53548,0 21.80322,0 1.2824,-0.0638 2.56701,-0.10612 3.84375,-0.25 0.84579,-0.17895 1.76717,-0.40606 2.3402,-1.10538 0.5883,-0.68977 0.85168,-1.65589 0.7223,-2.55087 -0.0509,-2.80053 -0.11111,-5.60097 -0.15625,-8.40156 -0.007,-1.09547 0.007,-2.19074 0.0312,-3.28594 0.26627,-2.7073 -0.0798,-5.21519 -2.25,-6.9375 -0.59691,-0.55386 -1.34144,-0.88286 -2.11173,-1.11767 -0.94042,-0.31677 -1.92322,-0.47414 -2.90935,-0.56138 -1.07948,-0.0688 -2.16305,-0.0352 -3.24416,-0.0742 -1.04684,-0.0269 -2.09388,-0.0326 -3.14101,-0.028 -1.14628,-0.0149 -2.29208,-0.0474 -3.4375,-0.0937 -2.31299,-0.002 -4.62606,0.0112 -6.93884,-0.0264 -1.43713,-0.0149 -2.87428,-0.003 -4.31116,0.0264 z"
         id="path5263"
         style="fill:#000000;fill-opacity:1;fill-rule:evenodd;stroke:#000000;stroke-width:0;stroke-linecap:butt;stroke-linejoin:miter;stroke-miterlimit:4;stroke-opacity:1;stroke-dasharray:none" />
      <path
         d="m 426.44156,175.39226 c -3.76863,9.73996 -0.34915,1.30373 -5.27971,13.78057 -2.72224,6.27431 -4.57816,6.261 -5.16299,6.29723 -23.46767,0.24367 -10.46344,-0.051 -19.49043,0.0552 -4.82618,-0.0219 -27.4465,-0.47267 -32.27266,-0.4954 -4.45973,-0.17591 -6.42045,-0.26697 -6.95276,-3.08448 0.38218,-14.65942 0.21035,-13.53239 0.23314,-16.48457 1.34173,-2.27961 1.48794,-5.43649 9.87377,-5.21218 19.18204,-0.34902 12.08756,0.0141 53.39893,-0.0382 1.54174,-0.0505 6.76393,1.32917 5.65271,5.18183 z"
         id="path5265"
         style="fill:#000000;fill-opacity:1;fill-rule:evenodd;stroke:#000000;stroke-width:0;stroke-linecap:butt;stroke-linejoin:miter;stroke-miterlimit:4;stroke-opacity:1;stroke-dasharray:none" />
    </g>
    <g
       transform="matrix(0.3529203,0.35418535,-0.35418535,0.3529203,215.45957,272.28943)"
       id="g5267"
       style="fill:#000000;fill-opacity:1">
      <path
         d="m 318.125,170.6875 c -8.16354,0.0308 -16.32707,0.0653 -24.49061,0.0937 -3.87813,0 -7.75626,0 -11.63439,0 -0.95261,0.2055 -1.94963,0.30484 -2.83284,0.74504 -0.77386,0.45515 -1.59503,0.90448 -2.14556,1.63421 -0.30169,0.44483 -0.58931,0.94943 -0.61535,1.49575 0.0583,0.47587 0.0852,0.95942 0.26377,1.41195 0.34034,1.08408 0.80517,2.12499 1.1978,3.19095 0.9601,2.47235 1.89538,4.95424 2.85093,7.42835 0.45478,1.02828 0.88591,2.06677 1.34375,3.09375 0.46888,0.97634 0.86704,2.01027 1.5743,2.84626 0.52327,0.62467 0.97944,1.34111 1.702,1.7577 0.54724,0.33695 1.20861,0.45291 1.84373,0.3859 1.06005,-0.0583 2.12214,0.0217 3.18308,0.0101 2.34165,-0.005 4.68307,0.0353 7.0246,0.0524 1.56465,0.0184 3.12954,0.0229 4.69405,0.0502 1.59691,0.0387 3.19383,0.0774 4.79074,0.11614 1.16458,-0.002 2.32916,-0.003 3.49353,0.0225 1.43015,0.0194 2.86056,0.004 4.29081,0.009 4.28739,0.003 8.57475,0.0266 12.86213,0.038 3.58659,0.0108 7.17316,0.0298 10.75978,0.0245 1.10041,-0.0353 2.20004,-0.0869 3.29888,-0.15548 0.97214,-0.11627 1.95154,-0.30536 2.84666,-0.71514 0.27977,-0.2666 0.64282,-0.47358 0.78202,-0.85523 0.36645,-0.53927 0.4825,-1.19066 0.486,-1.83181 0.056,-1.04564 -0.0594,-2.09113 -0.0658,-3.13722 -0.0486,-1.10116 -0.0336,-2.20326 -0.0352,-3.30512 -0.0122,-1.14484 -0.0566,-2.28875 -0.0972,-3.43277 -0.25566,-3.43757 0.43207,-6.54442 -2.14003,-8.99301 -0.70426,-0.61859 -1.54968,-1.06952 -2.46475,-1.27896 -0.92976,-0.2563 -1.87952,-0.44769 -2.84483,-0.49357 -1.07133,-0.0885 -2.14694,-0.0332 -3.22031,-0.059 -4.58649,-0.0592 -9.17293,-0.12502 -13.75944,-0.18022 -0.98095,-0.007 -1.96155,0.007 -2.94219,0.0312 z"
         id="path5269"
         style="fill:#000000;fill-opacity:1;fill-rule:evenodd;stroke:#000000;stroke-width:0;stroke-linecap:butt;stroke-linejoin:miter;stroke-miterlimit:4;stroke-opacity:1;stroke-dasharray:none" />
      <path
         d="m 373.5,170.15625 c -2.04167,0.0312 -4.08333,0.0625 -6.125,0.0937 -1.03724,-0.0122 -2.07589,0.01 -3.10867,0.11215 -0.38584,0.044 -0.7798,0.0418 -1.15228,0.16402 -0.68863,0.16241 -1.38137,0.3236 -2.0295,0.61501 -0.21364,0.0801 -0.40914,0.20064 -0.6158,0.29632 -0.38652,0.26325 -0.75334,0.55413 -1.09375,0.875 -0.46309,0.55733 -0.86562,1.16284 -1.1875,1.8125 -1.1185,5.85951 -0.82933,11.87415 -0.90625,17.8125 0.0693,0.23184 0.0798,0.48328 0.19827,0.69873 0.22598,0.52727 0.48693,1.07356 0.95798,1.42627 0.24378,0.20161 0.5643,0.26873 0.84375,0.40625 0.16392,0.0536 0.31392,0.15406 0.49176,0.16085 0.82862,0.16854 1.66926,0.27026 2.51424,0.30242 1.06174,0.0633 2.12547,0.1084 3.18928,0.0992 4.58425,-0.006 9.16849,-0.0187 13.75274,-0.0273 3.73962,-0.008 7.47926,-0.002 11.21889,-0.004 2.03811,0 4.07623,0 6.11434,0 2.63542,-0.0521 5.27083,-0.10417 7.90625,-0.15625 1.04353,-0.0805 2.09001,-0.0699 3.13579,-0.0808 2.9115,-0.0254 5.823,-0.0534 8.73452,-0.0755 0.34856,0.0242 0.69765,-0.0526 1.00469,-0.21875 0.1425,-0.0782 0.31466,-0.10592 0.4275,-0.23468 0.47355,-0.31772 0.83688,-0.76358 1.22875,-1.17157 0.46846,-0.63854 0.89518,-1.30969 1.26649,-2.00861 0.46238,-0.952 0.92169,-1.90671 1.29601,-2.89764 0.87498,-2.23959 1.75772,-4.47616 2.625,-6.71875 0.36528,-1.09031 0.76605,-2.16769 1.18351,-3.23899 0.3555,-0.93076 0.71099,-1.86151 1.06649,-2.79226 0.0906,-0.33669 0.18152,-0.67901 0.15625,-1.03125 -0.0195,-0.16555 0.035,-0.34021 -0.0312,-0.5 -0.0483,-0.29095 -0.16165,-0.56389 -0.25,-0.84375 -0.17478,-0.29822 -0.38013,-0.57693 -0.61897,-0.8263 -0.10114,-0.0961 -0.14836,-0.24202 -0.28728,-0.2987 -0.69435,-0.57269 -1.49485,-1.0238 -2.36694,-1.25818 -0.54891,-0.19505 -1.12029,-0.31305 -1.69556,-0.39807 -1.03665,-0.0374 -2.0738,-0.0328 -3.11092,-0.0312 -3.79479,-5.9e-4 -7.58959,0.001 -11.38438,-8.7e-4 -6.57908,-0.0317 -13.15817,-0.06 -19.7372,-0.1 -2.03185,-0.01 -4.06368,-0.0291 -6.09557,-0.0242 -1.11666,0.003 -2.23341,-0.007 -3.35001,0.005 -1.38856,0.0191 -2.77711,0.0383 -4.16567,0.0575 z"
         id="path5271"
         style="fill:#000000;fill-opacity:1;fill-rule:evenodd;stroke:#000000;stroke-width:0;stroke-linecap:butt;stroke-linejoin:miter;stroke-miterlimit:4;stroke-opacity:1;stroke-dasharray:none" />
    </g>
    <path
       d="m 307.39486,548.71029 c -10e-4,-1.9411 0.0208,-3.88216 0.0152,-5.82327 -0.002,-2.57826 0.0156,-5.1565 0.0231,-7.73474 0.009,-2.80028 0.0265,-5.60055 0.0224,-8.40085 0.005,-1.68203 -0.0111,-3.364 -0.0152,-5.04601 -0.003,-1.27344 0.008,-2.54693 -0.0124,-3.82029 -0.0122,-1.46031 -0.0431,-2.92041 -0.065,-4.3806 -0.017,-1.70047 -0.0343,-3.40094 -0.0389,-5.10149 -0.008,-1.36107 -0.009,-2.72219 0.008,-4.08322 0.0118,-1.10596 0.02,-2.21197 0.0346,-3.3179 0.0296,-1.01149 0.0593,-2.02298 0.0889,-3.03447 -0.0333,-0.46719 -0.1022,-0.93227 -0.2127,-1.39043 -0.1394,-0.43327 -0.26221,-0.89989 -0.61945,-1.24138 -0.25974,-0.29283 -0.6189,-0.54568 -1.04188,-0.62362 -0.18577,-0.0679 -0.39129,-0.0546 -0.5872,-0.0816 -1.28126,0.37078 -2.56251,0.74157 -3.84377,1.11235 -1.04522,0.35758 -2.0913,0.71342 -3.12971,1.08586 -0.465,0.19059 -0.95652,0.34252 -1.37675,0.60586 -0.38667,0.21732 -0.73742,0.48563 -1.00851,0.81106 -0.24257,0.34274 -0.33098,0.7454 -0.31807,1.14386 0.009,0.42105 -0.0328,0.84127 -0.0314,1.26224 -10e-4,2.13308 0.005,4.26616 -0.01,6.39922 -0.0106,2.07482 -0.003,4.14968 -0.005,6.22452 -0.002,2.9949 0.015,5.98977 0.0225,8.98464 0.0265,7.70438 0.0595,15.40873 0.0886,23.1131 0.0227,5.65422 0.0467,11.30845 0.0723,16.96267 0.007,0.66732 0.0228,1.33448 0.0444,2.00156 0.0444,0.41682 0.0323,0.84568 0.19751,1.24477 0.12777,0.34645 0.42759,0.62305 0.79208,0.7919 0.43421,0.19995 0.90373,0.3317 1.35686,0.49443 0.49949,0.17069 0.99864,0.34213 1.49732,0.51461 0.46578,0.14903 0.93506,0.297 1.41512,0.40197 0.76687,0.15608 1.53373,0.38782 2.3006,0.5439 0.51869,0.16029 1.06455,0.1539 1.59656,0.27687 0.27935,0.0786 0.57937,0.0483 0.86873,0.057 0.47069,-0.0201 0.97815,-0.024 1.38135,-0.26541 0.29047,-0.19787 0.32656,-0.54885 0.45942,-0.82896 0.13296,-6.28546 0.0274,-12.57211 0.0304,-18.85816 z"
       id="path5273"
       style="fill:#000000;fill-opacity:1;fill-rule:evenodd;stroke:#000000;stroke-width:0;stroke-linecap:butt;stroke-linejoin:miter;stroke-miterlimit:4;stroke-opacity:1;stroke-dasharray:none" />
    <path
       d="m 257.38329,625.83248 c 1.07037,-1.07956 2.14038,-2.15949 3.21983,-3.22998 1.36903,-1.3633 2.73539,-2.72932 4.11463,-4.08232 1.38163,-1.36344 2.77986,-2.70998 4.15862,-4.07635 1.83508,-1.81105 3.68397,-3.60805 5.52574,-5.41228 2.00097,-1.95904 4.00791,-3.91199 5.99974,-5.88032 1.20146,-1.17716 2.38841,-2.36897 3.58363,-3.55245 0.9053,-0.89559 1.81985,-1.78188 2.71249,-2.6902 1.03166,-1.0336 2.04998,-2.08044 3.0747,-3.12091 1.19935,-1.2056 2.39847,-2.41142 3.60652,-3.60829 0.96392,-0.96097 1.93241,-1.91735 2.91414,-2.86016 0.79606,-0.76785 1.58967,-1.53824 2.38767,-2.30407 0.74129,-0.68883 1.48257,-1.37765 2.22386,-2.06649 0.30943,-0.3516 0.59233,-0.72712 0.84113,-1.1274 0.21078,-0.4034 0.45695,-0.81838 0.44947,-1.31253 0.0263,-0.39053 -0.0457,-0.82384 -0.28706,-1.17984 -0.082,-0.17999 -0.23572,-0.31705 -0.354,-0.47553 -1.16339,-0.65241 -2.32677,-1.30482 -3.49015,-1.95722 -0.98832,-0.49355 -1.976,-0.98893 -2.97012,-1.46719 -0.46213,-0.19745 -0.91533,-0.44093 -1.39785,-0.55543 -0.42619,-0.1229 -0.86349,-0.18442 -1.28557,-0.14911 -0.41439,0.0678 -0.76326,0.28741 -1.03802,0.57628 -0.2938,0.30172 -0.62226,0.5671 -0.92112,0.86358 -1.52011,1.49642 -3.03551,2.99763 -4.56516,4.48434 -1.48539,1.44867 -2.9579,2.91045 -4.43748,4.36504 -2.13495,2.10033 -4.25599,4.21474 -6.38399,6.32209 -5.46931,5.42631 -10.934,10.85726 -16.40142,16.28547 -4.01164,3.98466 -8.02228,7.97034 -12.03187,11.95707 -0.47073,0.47305 -0.93458,0.95286 -1.39454,1.43649 -0.26577,0.32414 -0.57973,0.61654 -0.74803,1.01434 -0.1571,0.33419 -0.14369,0.74188 -0.008,1.12002 0.16234,0.44963 0.39802,0.87654 0.60015,1.31353 0.22899,0.47559 0.45721,0.95146 0.68436,1.42774 0.22076,0.43637 0.44473,0.8745 0.70691,1.29013 0.42706,0.65579 0.80022,1.36469 1.22729,2.02047 0.24987,0.48197 0.63755,0.86631 0.92336,1.33158 0.14009,0.25413 0.37222,0.4466 0.56912,0.65881 0.34469,0.32117 0.70366,0.67987 1.15858,0.79766 0.34481,0.068 0.62015,-0.15261 0.91292,-0.25457 0.78233,-0.77295 1.56642,-1.54407 2.35864,-2.30689 0.3802,-0.36217 0.74146,-0.744 1.13727,-1.08974 0.3075,-0.28193 0.66009,-0.51311 0.94032,-0.82528 0.56438,-0.55675 1.12192,-1.12043 1.68343,-1.68009 z"
       id="path5275"
       style="fill:#000000;fill-opacity:1;fill-rule:evenodd;stroke:#000000;stroke-width:0;stroke-linecap:butt;stroke-linejoin:miter;stroke-miterlimit:4;stroke-opacity:1;stroke-dasharray:none" />
    <path
       d="m 173.60113,638.83361 c 1.52019,-0.0139 3.04037,-0.0283 4.56062,-0.0294 1.93204,-0.005 3.86411,-0.0146 5.79616,-0.005 1.9411,0.003 3.88209,0.0305 5.82321,0.0297 2.57826,0.004 5.15645,0.0285 7.73466,0.0425 2.80025,0.016 5.60047,0.0405 8.40077,0.0434 1.68201,0.009 3.36401,-0.003 5.04603,-0.003 1.27344,6.5e-4 2.5469,0.0144 3.82031,-0.003 1.46034,-0.009 2.92051,-0.0358 4.38074,-0.0541 1.70052,-0.0127 3.40102,-0.0258 5.10158,-0.0261 1.36109,-0.005 2.72221,-0.003 4.08318,0.0182 1.10593,0.0145 2.21192,0.0256 3.31781,0.0429 1.01142,0.0322 2.02282,0.0643 3.03424,0.0965 0.46727,-0.0321 0.93253,-0.0999 1.39096,-0.20922 0.43361,-0.13832 0.90054,-0.25996 1.24292,-0.61635 0.29348,-0.259 0.54723,-0.61753 0.62622,-1.04031 0.0684,-0.18561 0.0556,-0.39116 0.0831,-0.58699 -0.36758,-1.28219 -0.73516,-2.56436 -1.10273,-3.84654 -0.35497,-1.04611 -0.7082,-2.09308 -1.07804,-3.13242 -0.18943,-0.46548 -0.34013,-0.95737 -0.60242,-1.37826 -0.21635,-0.38721 -0.48378,-0.73863 -0.80853,-1.01054 -0.34213,-0.24342 -0.74457,-0.33284 -1.14307,-0.32092 -0.42106,0.008 -0.84119,-0.0349 -1.26215,-0.0345 -2.13307,-0.006 -4.26617,-0.006 -6.39918,-0.0259 -2.07479,-0.0158 -4.14965,-0.0133 -6.22449,-0.0208 -2.99488,-0.01 -5.98978,6e-5 -8.98467,7e-5 -7.70441,0.007 -15.40882,0.021 -23.11324,0.0308 -5.65427,0.009 -11.30854,0.0185 -16.9628,0.0299 -0.66734,0.005 -1.33454,0.0195 -2.00167,0.0394 -0.41692,0.0433 -0.84576,0.0302 -1.24525,0.19439 -0.34677,0.12691 -0.62412,0.42604 -0.79388,0.79011 -0.20103,0.4337 -0.33396,0.90289 -0.49782,1.35561 -0.17194,0.49906 -0.34463,0.99778 -0.51835,1.49603 -0.1502,0.46541 -0.29935,0.93431 -0.40551,1.41412 -0.15799,0.76647 -0.39165,1.53275 -0.54965,2.29923 -0.16158,0.51828 -0.15656,1.06416 -0.28086,1.59586 -0.0793,0.27915 -0.0498,0.57925 -0.0592,0.86859 0.0189,0.47074 0.0216,0.97821 0.26196,1.382 0.19714,0.29096 0.54803,0.32794 0.8278,0.46149 1.09977,0.001 2.19951,0.005 3.29918,0.0205 0.52498,0.0102 1.05035,-0.007 1.57487,0.0259 0.41688,0.016 0.83008,0.0999 1.24885,0.0752 0.79278,0.002 1.58557,-0.007 2.37835,-0.009 z"
       id="path5277"
       style="fill:#000000;fill-opacity:1;fill-rule:evenodd;stroke:#000000;stroke-width:0;stroke-linecap:butt;stroke-linejoin:miter;stroke-miterlimit:4;stroke-opacity:1;stroke-dasharray:none" />
    <path
       d="m 148.55066,437.65538 c -1.07218,1.07778 -2.14399,2.15593 -3.22521,3.22462 -1.3713,1.36102 -2.73993,2.72476 -4.12143,4.07546 -1.3839,1.36114 -2.78437,2.70534 -4.1654,4.0694 -1.83809,1.808 -3.68999,3.60191 -5.53475,5.40308 -2.00424,1.9557 -4.01442,3.9053 -6.00953,5.87031 -1.20342,1.17516 -2.39235,2.365 -3.58955,3.54648 -0.90679,0.89409 -1.82281,1.77885 -2.71697,2.68568 -1.03337,1.03188 -2.05344,2.07702 -3.07989,3.11578 -1.20136,1.2036 -2.40248,2.40743 -3.61253,3.60227 -0.96551,0.95937 -1.93559,1.91414 -2.9189,2.85531 -0.79733,0.76653 -1.59223,1.53559 -2.3915,2.30008 -0.74243,0.6876 -1.48486,1.37519 -2.2273,2.06279 -0.31001,0.35108 -0.59354,0.72613 -0.84301,1.126 -0.21144,0.40304 -0.45832,0.81761 -0.45165,1.31177 -0.0269,0.39049 0.0443,0.82392 0.28509,1.18032 0.0817,0.18012 0.2352,0.31745 0.35321,0.47612 1.1623,0.65436 2.32459,1.30869 3.48689,1.96304 0.98749,0.49518 1.97435,0.99221 2.96766,1.47213 0.46181,0.19822 0.9146,0.44245 1.39693,0.55775 0.42599,0.12361 0.86317,0.18587 1.28532,0.15126 0.4145,-0.0671 0.76373,-0.28614 1.03898,-0.57455 0.2943,-0.30123 0.6232,-0.56607 0.92255,-0.86204 1.52261,-1.49389 3.0405,-2.99258 4.57263,-4.47674 1.4878,-1.44619 2.96275,-2.90551 4.44474,-4.35764 2.13845,-2.09677 4.26301,-4.20764 6.39452,-6.31144 5.47834,-5.41719 10.95207,-10.83903 16.42852,-16.25813 4.01828,-3.97798 8.03556,-7.95697 12.05178,-11.937 0.47152,-0.47227 0.93617,-0.95131 1.39693,-1.43416 0.26631,-0.32371 0.58076,-0.61559 0.74972,-1.01311 0.15765,-0.33392 0.14493,-0.74163 0.01,-1.12 -0.16158,-0.4499 -0.39656,-0.87721 -0.59795,-1.31452 -0.22821,-0.47598 -0.45563,-0.95223 -0.68199,-1.42888 -0.22003,-0.43674 -0.44327,-0.87525 -0.70475,-1.2913 -0.42597,-0.6565 -0.79796,-1.36603 -1.22393,-2.02253 -0.24907,-0.48238 -0.63611,-0.86736 -0.92114,-1.3331 -0.13966,-0.25437 -0.37148,-0.44722 -0.56802,-0.65976 -0.34415,-0.32174 -0.70253,-0.68105 -1.15725,-0.79959 -0.34469,-0.0686 -0.6204,0.15157 -0.91335,0.25304 -0.78361,0.77164 -1.56898,1.54146 -2.36247,2.30297 -0.3808,0.36153 -0.7427,0.74276 -1.13908,1.08783 -0.30798,0.28142 -0.66095,0.51202 -0.9417,0.82372 -0.56531,0.55581 -1.12379,1.11857 -1.68622,1.67728 z"
       id="path5279"
       style="fill:#000000;fill-opacity:1;fill-rule:evenodd;stroke:#000000;stroke-width:0;stroke-linecap:butt;stroke-linejoin:miter;stroke-miterlimit:4;stroke-opacity:1;stroke-dasharray:none" />
    <g
       transform="matrix(0.5,0,0,0.5,27.542856,339.35251)"
       id="g5289"
       style="fill:#000000;fill-opacity:1">
      <path
         d="m 463.84375,150.40625 c -0.90467,0.0634 -1.64902,0.69443 -2.08467,1.45577 -0.5419,1.18268 -1.0813,2.36798 -1.61213,3.5561 -0.86916,2.04945 -1.75675,4.09103 -2.63195,6.13786 -0.78625,1.87717 -1.5725,3.75435 -2.35875,5.63152 -0.40157,0.96501 -0.57098,2.00302 -0.875,3 -0.26365,0.95112 -0.25988,1.63605 0.21561,2.571 0.81391,1.59784 2.28329,2.69347 3.50314,3.9915 0.8002,0.63721 1.47783,1.41107 2.21308,2.11933 1.52691,1.54967 3.03106,3.12176 4.54901,4.68025 1.31114,1.34824 2.61463,2.70406 3.93053,4.04758 0.78569,0.78693 1.59498,1.5514 2.36677,2.35158 0.83619,0.941 1.72835,1.83046 2.61392,2.72457 8.59848,8.59848 17.19696,17.19696 25.79544,25.79544 0.80208,0.77083 1.60417,1.54167 2.40625,2.3125 0.83389,0.67575 1.58936,1.48076 2.60827,1.88226 0.76757,0.29563 1.63552,0.21608 2.36048,-0.16351 0.85795,-0.44475 1.4579,-1.24096 2.11846,-1.92303 2.69011,-2.83754 5.38237,-5.6734 8.06904,-8.51447 1.20149,-1.58919 2.16455,-2.60447 2.34375,-4.65156 -0.006,-0.92156 -0.30773,-1.81752 -0.68254,-2.65003 -0.41401,-0.84788 -0.86437,-1.69336 -1.49699,-2.40135 -0.68188,-0.83376 -1.38635,-1.6482 -2.10172,-2.45331 -1.49809,-1.55439 -2.98778,-3.11679 -4.46875,-4.6875 -1.39782,-1.43075 -2.79848,-2.85875 -4.17021,-4.31466 -1.03157,-1.10727 -2.1291,-2.14991 -3.19793,-3.22066 -3.99592,-3.96616 -7.98802,-7.9362 -11.97904,-11.90727 -7.55624,-7.64933 -15.1047,-15.30632 -22.65282,-22.96366 -0.72066,-0.74295 -1.57917,-1.32744 -2.46549,-1.85364 -0.69996,-0.3941 -1.50824,-0.64063 -2.31576,-0.55261 z"
         id="path5283"
         style="fill:#000000;fill-opacity:1;fill-rule:evenodd;stroke:#000000;stroke-width:0;stroke-linecap:butt;stroke-linejoin:miter;stroke-miterlimit:4;stroke-opacity:1;stroke-dasharray:none" />
      <path
         d="m 530.9375,217.8125 c -0.71139,0.0327 -1.14811,0.68574 -1.6875,1.0625 -0.74754,0.77577 -1.58097,1.46093 -2.375,2.1875 -2.38542,2.21875 -4.77083,4.4375 -7.15625,6.65625 -0.69313,0.72647 -1.50339,1.35377 -2.05342,2.20577 -0.58059,0.82828 -1.2418,1.63991 -1.53564,2.62391 -0.23539,0.96202 0.0816,1.94626 0.50562,2.80966 0.33848,0.63496 0.67938,1.27444 1.20489,1.77854 0.75527,0.79978 1.54465,1.56758 2.3125,2.35557 7.74295,7.83659 15.48179,15.67729 23.22731,23.51131 0.86291,0.853 1.72583,1.70599 2.58874,2.55899 0.68869,0.86263 1.52597,1.58755 2.30378,2.36651 3.33636,3.29438 6.67246,6.58901 10.00872,9.88349 0.64769,0.80725 1.26726,1.64097 2,2.375 0.68479,0.72694 1.46466,1.35465 2.27618,1.93376 0.94577,0.5143 1.87671,1.1151 2.95609,1.30016 0.96455,0.25436 1.96736,0.27203 2.95523,0.17233 0.94028,-0.0651 1.82187,-0.46645 2.6875,-0.8125 1.50747,-0.67519 3.0231,-1.33165 4.54286,-1.97866 1.001,-0.44427 2.0286,-0.8338 2.98839,-1.36509 1.10501,-0.54767 2.21276,-1.0896 3.33466,-1.60201 2.01642,-0.87307 3.88647,-1.48689 4.39927,-3.76767 0.3387,-1.91969 -0.48895,-3.23333 -1.58381,-4.67746 -2.22883,-2.56225 -4.46267,-5.08441 -6.9205,-7.42666 -2.64191,-2.54282 -5.29044,-5.07881 -7.92825,-7.62585 -3.76409,-3.69237 -7.5358,-7.37701 -11.29503,-11.07431 -4.64389,-4.59002 -9.28599,-9.18185 -13.91679,-13.78507 -1.34821,-1.33351 -2.68904,-2.67454 -4.03392,-4.01132 -0.92084,-0.87533 -1.83086,-1.76169 -2.72327,-2.66604 -0.80052,-0.77248 -1.52801,-1.62169 -2.37144,-2.3482 -0.79066,-0.67781 -1.55551,-1.39981 -2.45585,-1.93326 -0.65914,-0.43646 -1.44623,-0.80455 -2.25507,-0.70715 z"
         id="path5285"
         style="fill:#000000;fill-opacity:1;fill-rule:evenodd;stroke:#000000;stroke-width:0;stroke-linecap:butt;stroke-linejoin:miter;stroke-miterlimit:4;stroke-opacity:1;stroke-dasharray:none" />
    </g>
    <g
       transform="matrix(0,-0.5,0.5,0,11.441905,708.68234)"
       id="g5293"
       style="fill:#000000;fill-opacity:1">
      <path
         d="m 463.625,150.40625 c -0.44251,0.16911 -0.91379,0.30743 -1.22902,0.68547 -0.80659,0.62503 -0.99273,1.68502 -1.44401,2.54769 -0.90144,2.04255 -1.80395,4.08477 -2.68723,6.13521 -1.01533,2.41888 -2.03066,4.83775 -3.04599,7.25663 -0.32391,0.95834 -0.71103,1.90279 -0.875,2.90625 0.0468,0.98502 0.25558,1.96028 0.62495,2.87485 0.41411,0.81062 1.02059,1.50055 1.61884,2.17887 1.04312,1.15274 2.09317,2.29949 3.17063,3.42034 1.37462,1.44344 2.74595,2.89023 4.15332,4.30194 1.58072,1.60497 3.13998,3.23097 4.72926,4.82756 1.00231,1.01948 2.04729,1.99625 3.03701,3.0283 0.77924,0.75268 1.47205,1.58774 2.24128,2.34968 1.76272,1.76101 3.54654,3.50078 5.30117,5.26992 6.69848,6.7068 13.39469,13.41587 20.09229,20.12354 0.92248,0.88212 1.83046,1.77997 2.76208,2.6522 0.77129,0.68252 1.58201,1.37691 2.55042,1.75405 0.93402,0.35612 1.38495,0.0177 2.125,-0.375 0.80778,-0.65628 1.55757,-1.37851 2.3125,-2.09375 1.55107,-1.57605 2.69505,-3.2073 4.13779,-4.87262 5.35628,-6.33044 3.27075,-3.89751 4.81124,-5.7968 1.44669,-1.8721 1.43378,-2.75823 0.74343,-4.72592 -0.38658,-0.85619 -0.92911,-1.63512 -1.46467,-2.40223 -0.68879,-0.86159 -1.41271,-1.6941 -2.16535,-2.50041 -1.94543,-2.08463 -3.9391,-4.12349 -5.9095,-6.18442 -1.27947,-1.32091 -2.53298,-2.66729 -3.8433,-3.95796 -1.3454,-1.34029 -2.66157,-2.70954 -4.01279,-4.04404 -2.28914,-2.29435 -4.60256,-4.56429 -6.92185,-6.8281 -2.9875,-2.9898 -5.9847,-5.96996 -8.94702,-8.98479 -5.40308,-5.49465 -10.80615,-10.98931 -16.20923,-16.48396 -0.67988,-0.74729 -1.44861,-1.41716 -2.28655,-1.98183 -0.74589,-0.60739 -1.66897,-0.9832 -2.6197,-1.11192 -0.25137,-0.008 -0.50012,0.003 -0.75,0.0312 z"
         id="path5295"
         style="fill:#000000;fill-opacity:1;fill-rule:evenodd;stroke:#000000;stroke-width:0;stroke-linecap:butt;stroke-linejoin:miter;stroke-miterlimit:4;stroke-opacity:1;stroke-dasharray:none" />
      <path
         d="m 531.6875,217.9375 c -0.75418,0.10761 -1.31502,0.71063 -2.02355,0.95652 -0.30563,0.13003 -0.66644,0.14809 -0.86818,0.44979 -0.84111,0.81558 -1.7458,1.56104 -2.6175,2.34279 -2.25744,2.07687 -4.47421,4.19731 -6.71149,6.29578 -0.63879,0.61895 -1.35058,1.17334 -1.81981,1.9422 -0.57012,0.77774 -1.20008,1.546 -1.48134,2.48477 -0.30145,0.88403 -0.0265,1.82004 0.32,2.64636 0.2787,0.58861 0.57751,1.19325 0.9858,1.70012 7.0414,7.20518 14.04904,14.44324 21.07857,21.65999 2.07231,2.11991 4.13264,4.2516 6.2296,6.34725 1.54823,1.55127 3.08527,3.11355 4.61127,4.6867 2.89562,2.97014 5.78064,5.95059 8.67163,8.92523 0.65123,0.79034 1.26381,1.62251 2.02313,2.31467 0.73829,0.72793 1.56297,1.36111 2.44562,1.90408 0.91488,0.55246 1.92222,0.93764 2.96875,1.15625 0.93957,0.15956 1.91265,0.21819 2.85485,0.0437 1.0755,-0.13849 2.07964,-0.56457 3.05049,-1.02755 3.16433,-1.42908 6.31929,-2.87908 9.49824,-4.27555 0.98245,-0.43526 1.94786,-0.90598 2.88312,-1.43566 1.48129,-1.1487 2.0142,-1.67286 2.20342,-3.25554 -0.0824,-1.02577 -0.29722,-1.99111 -0.74264,-2.89814 -0.53988,-0.9107 -1.07925,-1.8271 -1.70193,-2.68503 -0.62935,-0.86498 -1.26705,-1.72757 -1.96791,-2.53627 -0.68672,-0.82589 -1.4164,-1.61487 -2.20497,-2.34498 -2.81208,-2.71168 -5.63494,-5.4122 -8.43991,-8.13121 -3.56735,-3.47034 -7.13457,-6.94081 -10.6865,-10.42695 -2.61708,-2.56182 -5.218,-5.14014 -7.8202,-7.71706 -3.97779,-3.94359 -7.94541,-7.89747 -11.93236,-11.83179 -1.00812,-0.9985 -2.03136,-1.98195 -3.03001,-2.98987 -0.888,-0.91869 -1.78701,-1.82698 -2.71369,-2.7068 -0.78649,-0.59767 -1.53631,-1.32855 -2.5211,-1.57559 -0.174,-0.0919 -0.35998,-0.0223 -0.5414,-0.0182 z"
         id="path5297"
         style="fill:#000000;fill-opacity:1;fill-rule:evenodd;stroke:#000000;stroke-width:0;stroke-linecap:butt;stroke-linejoin:miter;stroke-miterlimit:4;stroke-opacity:1;stroke-dasharray:none" />
    </g>
    <g
       transform="matrix(-0.5,0,0,-0.5,377.47731,724.22382)"
       id="g5299"
       style="fill:#000000;fill-opacity:1">
      <path
         d="m 461.57863,152.15409 c -4.78638,11.17757 -0.32213,0.47261 -6.36867,14.87766 -1.27185,6.21087 0.71851,7.31123 1.17077,7.83323 19.12873,19.95111 9.94166,10.09527 17.28958,17.77984 3.99219,4.0438 21.64637,21.63953 25.63923,25.68264 3.81517,3.6088 5.41436,5.71984 8.13508,3.85198 11.56025,-12.37106 9.09237,-9.51436 11.46504,-11.96011 0.74167,-3.00296 1.57138,-5.18512 -5.51623,-12.05841 -15.5141,-16.43084 -10.14435,-9.89369 -44.1228,-44.70508 -1.22875,-1.33906 -5.48623,-5.40369 -7.692,-1.30175 z"
         id="path5301"
         style="fill:#000000;fill-opacity:1;fill-rule:evenodd;stroke:#000000;stroke-width:0;stroke-linecap:butt;stroke-linejoin:miter;stroke-miterlimit:4;stroke-opacity:1;stroke-dasharray:none" />
      <path
         d="m 531.6875,217.9375 c -0.75418,0.10761 -1.31502,0.71063 -2.02355,0.95652 -0.30563,0.13003 -0.66644,0.14809 -0.86818,0.44979 -0.84111,0.81558 -1.7458,1.56104 -2.6175,2.34279 -2.25744,2.07687 -4.47421,4.19731 -6.71149,6.29578 -0.63879,0.61895 -1.35058,1.17334 -1.81981,1.9422 -0.57012,0.77774 -1.20008,1.546 -1.48134,2.48477 -0.30145,0.88403 -0.0265,1.82004 0.32,2.64636 0.27919,0.58813 0.57651,1.19423 0.98652,1.69942 8.51147,8.62394 17.01871,17.25211 25.53283,25.87341 0.98747,0.97844 1.97889,1.95291 2.96377,2.93396 0.69431,0.85804 1.52915,1.59096 2.30328,2.37566 3.33825,3.28958 6.67252,6.58319 10.00922,9.87434 0.66455,0.80072 1.26215,1.6631 2.01279,2.38779 0.69019,0.75141 1.48195,1.3962 2.31906,1.97657 0.94464,0.57894 1.95959,1.05142 3.03804,1.32164 0.89219,0.17084 1.80911,0.24466 2.71247,0.11948 1.06803,-0.10004 2.06823,-0.51512 3.0387,-0.94754 1.85445,-0.79589 3.71086,-1.5873 5.55174,-2.41432 0.98582,-0.40613 1.92606,-0.90187 2.87297,-1.38838 1.77886,-0.87984 3.59186,-1.68841 5.39173,-2.52399 1.94782,-1.25266 1.79273,-2.82021 0.9369,-4.73105 -2.10581,-2.88945 -4.15106,-5.60755 -6.38783,-7.89748 -2.90025,-2.79581 -5.80977,-5.58204 -8.70406,-8.384 -3.61091,-3.51295 -7.22213,-7.02558 -10.8175,-10.55445 -2.61708,-2.56182 -5.218,-5.14014 -7.8202,-7.71706 -3.97779,-3.94359 -7.94541,-7.89747 -11.93236,-11.83179 -1.00812,-0.9985 -2.03136,-1.98195 -3.03001,-2.98987 -0.888,-0.91869 -1.78701,-1.82698 -2.71369,-2.7068 -0.78649,-0.59767 -1.53631,-1.32855 -2.5211,-1.57559 -0.174,-0.0919 -0.35998,-0.0223 -0.5414,-0.0182 z"
         id="path5303"
         style="fill:#000000;fill-opacity:1;fill-rule:evenodd;stroke:#000000;stroke-width:0;stroke-linecap:butt;stroke-linejoin:miter;stroke-miterlimit:4;stroke-opacity:1;stroke-dasharray:none" />
    </g>
    <g
       transform="matrix(-0.3537329,0.3533738,-0.3533738,-0.3537329,462.00051,544.31529)"
       id="g5305"
       style="fill:#000000;fill-opacity:1">
      <path
         d="m 463.53125,150.4375 c -0.9257,0.24677 -1.66951,1.00245 -2.0096,1.88674 -1.0663,2.509 -2.16953,5.00255 -3.21026,7.52224 -0.80402,1.96879 -1.59208,3.94489 -2.33899,5.93591 -0.58557,1.65189 -1.14912,3.31144 -1.7224,4.96761 -0.17504,1.04494 0.51876,1.97107 1.06627,2.79179 0.93372,1.25091 2.08939,2.30919 3.15187,3.44676 3.4012,3.5176 6.77093,7.06591 10.2009,10.55549 0.96441,0.97701 1.97531,1.90733 2.9018,2.92147 1.19579,1.26332 2.39298,2.52526 3.64129,3.73719 5.25384,5.2045 10.44364,10.47309 15.68285,15.69228 2.89528,2.88869 5.77751,5.79068 8.68094,8.67106 1.22844,1.16275 2.40227,2.38941 3.73658,3.43396 0.76881,0.54371 1.7221,1.02821 2.6875,0.8125 1.11302,-0.17382 1.86562,-1.0205 2.56424,-1.82389 2.7232,-2.88939 5.42199,-5.80249 8.19183,-8.64729 3.10576,-2.67705 4.79228,-5.90598 2.28018,-9.0524 -4.39713,-4.74547 -8.75357,-8.47601 -13.2793,-13.09954 -2.90076,-2.96366 -5.85966,-5.86986 -8.80927,-8.78477 -3.16052,-3.09875 -6.28344,-6.23553 -9.40625,-9.37218 -4.35052,-4.39575 -8.69648,-8.79599 -13.01952,-13.2188 -1.94237,-1.9923 -3.90804,-3.96212 -5.83441,-5.96988 -0.73601,-0.66123 -1.48484,-1.31202 -2.34375,-1.8125 -0.82524,-0.42117 -1.76997,-0.79203 -2.7097,-0.61659 l -0.1028,0.0228 z"
         id="path5307"
         style="fill:#000000;fill-opacity:1;fill-rule:evenodd;stroke:#000000;stroke-width:0;stroke-linecap:butt;stroke-linejoin:miter;stroke-miterlimit:4;stroke-opacity:1;stroke-dasharray:none" />
      <path
         d="m 525.8573,221.62422 c -3.20128,3.2617 -6.29,6.589 -9.37613,10.0405 -0.51278,0.86413 -0.58776,1.96613 -0.17111,2.88294 0.29374,0.89686 0.74727,1.75669 1.40159,2.44435 8.51416,8.62908 17.02585,17.26073 25.54333,25.88654 0.90459,0.89465 1.80918,1.7893 2.71377,2.68395 0.81171,1.00351 1.80157,1.84057 2.70272,2.76035 12.23588,12.06305 -0.0921,-0.0815 12.20718,12.01955 1.87378,1.58308 2.83162,2.56699 4.89489,3.172 1.01268,0.21918 2.06345,0.21272 3.081,0.0272 1.13322,-0.1689 2.15794,-0.70931 3.19831,-1.15885 2.14968,-0.93862 4.30638,-1.86123 6.44715,-2.82026 2.04031,-1.12016 4.1838,-2.0333 6.3125,-2.96875 0.95276,-0.40198 1.84113,-1.1213 2.14628,-2.14385 0.25954,-0.87014 0.11451,-1.80495 -0.20878,-2.6374 -0.37103,-1.00013 -0.96922,-1.90702 -1.65054,-2.72219 -0.91385,-1.02841 -1.95263,-1.93714 -2.92655,-2.9076 -5.27244,-5.09961 -10.54219,-10.20212 -15.79277,-15.32421 -4.08099,-4.02222 -8.17187,-8.03446 -12.22079,-12.08904 -5.49807,-5.49165 -11.03507,-10.94418 -16.5685,-16.40008 -3.76586,-4.61941 -7.1593,-4.70871 -11.73355,-0.74516 z"
         id="path5309"
         style="fill:#000000;fill-opacity:1;fill-rule:evenodd;stroke:#000000;stroke-width:0;stroke-linecap:butt;stroke-linejoin:miter;stroke-miterlimit:4;stroke-opacity:1;stroke-dasharray:none" />
    </g>
    <g
       transform="matrix(0.5,0,0,0.5,27.542856,339.35251)"
       id="g5319"
       style="fill:#000000;fill-opacity:1">
      <path
         d="m 385.34375,539.84375 -0.0625,0 c 0.0412,0.13328 -0.31257,-0.12771 -0.24529,0.029 -1.33119,-0.0181 -2.66238,-0.0367 -3.99372,-0.025 -5.54006,0.0123 -11.08011,0.0332 -16.6202,0.0272 -2.39073,-0.007 -4.78137,0.0184 -7.17204,0.0312 -0.92369,0.0833 -1.86592,0.11458 -2.76718,0.33906 -0.55549,0.15437 -1.09639,0.41747 -1.44695,0.89227 -0.44601,0.58887 -0.59304,1.33704 -0.72337,2.04992 0.062,2.73803 0.13167,5.47595 0.1889,8.21405 0.016,2.09579 0.0372,4.19156 0.0299,6.28744 -0.0356,4.47051 0.83321,5.15151 3.875,5.96726 2.25704,0.53868 4.61294,0.38991 6.91961,0.43632 1.77493,0.0421 3.5504,0.0492 5.3257,0.0637 1.59895,0.002 3.19789,0.003 4.79671,-0.0203 3.63756,-0.0346 7.27505,-0.0778 10.91265,-0.10697 3.60725,-0.0142 7.21448,-0.0359 10.82178,-0.029 2.27243,0 4.54487,0 6.8173,0 0.42116,-0.0703 0.8371,-0.15085 1.23722,-0.30376 0.745,-0.25935 1.44291,-0.69119 2.01131,-1.23725 0.42407,-0.45528 0.77924,-0.99916 0.90772,-1.61524 0.236,-0.83235 0.0727,-1.71305 -0.2161,-2.51107 -0.39135,-1.27403 -0.79286,-2.54504 -1.17787,-3.82095 -0.28267,-1.04022 -0.61835,-2.06451 -0.94255,-3.09223 -0.59616,-1.87942 -1.19232,-3.75883 -1.78848,-5.63825 -0.3326,-0.96831 -0.78107,-1.88933 -1.28125,-2.78125 -0.52412,-0.89326 -1.1896,-1.71482 -2.03979,-2.31667 -0.75559,-0.58646 -1.72335,-0.83496 -2.66956,-0.81091 -3.00886,-0.0187 -6.01769,-0.0477 -9.02657,-0.0599 -0.55708,0.004 -1.11448,-0.0161 -1.67033,0.0312 z"
         id="path5313"
         style="fill:#000000;fill-opacity:1;fill-rule:evenodd;stroke:#000000;stroke-width:0;stroke-linecap:butt;stroke-linejoin:miter;stroke-miterlimit:4;stroke-opacity:1;stroke-dasharray:none" />
      <path
         d="m 297.71875,539.875 c -0.93241,0.12402 -1.43638,1.02735 -1.9375,1.71875 -0.58076,0.86345 -1.04546,1.79042 -1.44308,2.75044 -0.48218,1.04263 -0.74685,2.16877 -1.21317,3.21831 -0.55199,1.68326 -1.07849,3.37443 -1.55356,5.08103 -0.67336,2.20602 -1.34872,4.41259 -1.98755,6.62835 -0.1604,0.85077 -0.21066,1.77655 0.21298,2.56561 0.51161,0.81259 1.17137,1.57648 2.04688,2.00626 0.92343,0.5339 2.00707,0.43106 3.03125,0.5 2.64837,0.11497 5.29998,0.0422 7.94998,0.0625 5.93589,0.007 11.87196,-0.0147 17.80774,0.0112 3.29461,0.0528 6.58974,0.0744 9.88442,0.0145 2.06935,-0.004 4.14008,-0.0538 6.20161,-0.24435 0.99537,-0.11948 1.94179,-0.58377 2.58772,-1.35755 0.62529,-0.78163 1.03118,-1.75692 1.03728,-2.76745 0.1088,-2.32085 0.23663,-4.64279 0.17647,-6.9671 -0.0276,-3.19847 -0.0551,-6.39693 -0.0827,-9.5954 0.0412,-2.87077 -2.24262,-3.6581 -5.83905,-3.62413 -6.20305,0.0215 -9.81235,0.0888 -16.01541,0.0353 -3.64958,-0.0104 -7.29926,-0.0594 -10.94865,-0.005 -2.92002,0.0179 -5.83952,-0.0549 -8.75939,-0.0625 -0.38538,-0.0353 -0.77659,-0.0658 -1.15625,0.0312 z"
         id="path5315"
         style="fill:#000000;fill-opacity:1;fill-rule:evenodd;stroke:#000000;stroke-width:0;stroke-linecap:butt;stroke-linejoin:miter;stroke-miterlimit:4;stroke-opacity:1;stroke-dasharray:none" />
    </g>
    <g
       transform="matrix(0,0.5,-0.5,0,396.80647,357.59346)"
       id="g5323"
       style="fill:#000000;fill-opacity:1">
      <path
         d="m 385.34375,539.84375 c -1.09182,0.0512 -2.18466,0.0311 -3.27656,0 -4.00568,4.8e-4 -8.01139,-0.007 -12.01701,0.0203 -4.19379,0.0202 -8.38762,0.0278 -12.58143,0.0422 -0.99432,0.0643 -2.00028,0.084 -2.96875,0.34375 -0.99017,0.20276 -1.78446,1.0167 -1.9851,2.00489 -0.31566,0.97187 -0.14658,2.0021 -0.15341,3.00272 0.0632,3.15359 0.11283,6.30743 0.16976,9.46114 0.002,2.87398 -0.57744,5.58661 1.62864,7.67685 0.69755,0.54458 1.47634,1.01889 2.32996,1.27374 0.96611,0.27197 1.97445,0.34817 2.97421,0.36191 2.00262,-0.007 4.00463,0.056 6.00695,0.0826 1.42099,0.0277 2.84199,0.0528 4.26331,0.0424 3.87056,10e-4 7.74038,-0.0961 11.61087,-0.10918 4.48276,-0.0277 8.96557,-0.0547 13.44843,-0.0471 2.26671,0 4.53342,0 6.80013,0 1.11558,-0.0395 2.20559,-0.43915 3.11305,-1.08098 0.76436,-0.5786 1.39275,-1.4183 1.5285,-2.38233 0.15682,-0.87613 -0.16103,-1.73092 -0.41406,-2.55516 -0.45437,-1.49232 -0.9347,-2.97698 -1.3445,-4.48246 -0.31357,-1.03608 -0.67269,-2.05824 -0.98677,-3.09442 -0.48624,-1.54113 -0.97248,-3.08227 -1.45872,-4.6234 -0.42728,-1.03333 -0.84085,-2.08315 -1.44491,-3.0288 -0.51661,-0.7537 -1.06898,-1.51874 -1.82634,-2.04963 -0.8789,-0.65527 -2.00496,-0.88714 -3.08497,-0.83213 -3.28751,-0.0194 -6.57502,-0.0388 -9.86253,-0.0582 -0.15625,0.0104 -0.3125,0.0208 -0.46875,0.0312 z"
         id="path5325"
         style="fill:#000000;fill-opacity:1;fill-rule:evenodd;stroke:#000000;stroke-width:0;stroke-linecap:butt;stroke-linejoin:miter;stroke-miterlimit:4;stroke-opacity:1;stroke-dasharray:none" />
      <path
         d="m 289.53729,559.39743 c 2.92389,-9.4378 0.27055,-1.26312 4.09614,-13.35301 2.11269,-6.07996 3.85961,-6.20662 4.3146,-6.24232 18.25865,-0.26083 7.83813,0.17589 14.86143,0.0635 3.75499,0.0161 21.35495,-0.0451 25.10993,-0.0282 1.48127,0.83832 1.93358,1.00088 2.50797,3.69869 -0.075,14.14381 -0.1206,11.26324 -0.0916,14.1558 0.0297,2.29777 -0.0482,6.502 -4.84936,6.62506 -14.92416,0.35832 -9.40465,-8.6e-4 -41.54663,0.0934 -1.19949,0.0505 -5.26375,-1.28025 -4.40245,-5.01298 z"
         id="path5327"
         style="fill:#000000;fill-opacity:1;fill-rule:evenodd;stroke:#000000;stroke-width:0;stroke-linecap:butt;stroke-linejoin:miter;stroke-miterlimit:4;stroke-opacity:1;stroke-dasharray:none" />
    </g>
    <g
       transform="matrix(0,-0.5,0.5,0,7.9220983,705.34873)"
       id="g5329"
       style="fill:#000000;fill-opacity:1">
      <path
         d="m 406.15007,559.01739 c -2.94026,-9.35373 -0.27274,-1.25219 -4.11931,-13.23416 -2.12324,-6.02521 -5.16343,-5.85875 -5.61849,-5.89293 -18.25905,-0.20901 -6.71532,0.0594 -13.73879,-0.0329 -3.75496,0.0262 -21.80858,-0.0175 -25.42959,0.0532 -3.46972,0.17377 -4.5041,0.56968 -4.91591,3.2772 0.24326,14.41524 0.17492,13.00116 0.19511,15.83747 0.0735,1.12807 1.16221,5.22156 7.68655,4.99709 14.92475,0.3148 9.40463,-0.0265 41.54669,-0.0204 1.19959,0.0469 5.26153,-1.28424 4.39374,-4.98454 z"
         id="path5331"
         style="fill:#000000;fill-opacity:1;fill-rule:evenodd;stroke:#000000;stroke-width:0;stroke-linecap:butt;stroke-linejoin:miter;stroke-miterlimit:4;stroke-opacity:1;stroke-dasharray:none" />
      <path
         d="m 294.17277,544.08359 c -0.37267,1.15241 -0.78304,2.29517 -1.04777,3.47891 -0.54256,1.79271 -1.1149,3.57647 -1.652,5.37069 -0.54266,1.91195 -1.12709,3.81172 -1.7086,5.71193 -0.26046,0.86672 -0.48111,1.80767 -0.2019,2.69863 0.25763,0.84131 0.82104,1.58833 1.5625,2.0625 0.67653,0.4669 1.45437,0.8469 2.27593,0.95268 0.99162,0.0965 1.99021,0.0256 2.98495,0.0473 6.14947,0.003 12.29904,-0.007 18.44845,0.005 2.5045,0.0427 5.00911,0.0703 7.514,0.0573 2.01766,-0.005 4.03566,0.009 6.0531,-0.007 2.60162,-0.10549 5.20609,-0.10742 7.80901,-0.16579 1.04668,-0.002 2.15477,-0.0413 3.07081,-0.60857 0.84209,-0.42104 1.13929,-1.39615 1.18429,-2.27079 0.0774,-1.06772 -0.033,-2.13701 0.0231,-3.20553 0.0199,-2.54776 -0.0179,-5.09603 -0.0207,-7.64399 -0.0102,-2.25156 -0.0203,-4.50313 -0.0304,-6.75469 -0.0751,-0.88367 -0.31017,-1.77381 -0.78125,-2.53125 -0.46852,-0.79849 -1.29392,-1.42916 -2.24456,-1.45405 -1.08933,0.0289 -2.18627,0.0125 -3.27879,0.0166 -7.49484,-0.01 -14.98963,0.0155 -22.48443,0.0312 -1.59657,0.0393 -6.63178,0.0682 -8.2284,0.10892 -5.66847,0.23746 -6.79273,0.0732 -9.2473,4.09967 z"
         id="path5333"
         style="fill:#000000;fill-opacity:1;fill-rule:evenodd;stroke:#000000;stroke-width:0;stroke-linecap:butt;stroke-linejoin:miter;stroke-miterlimit:4;stroke-opacity:1;stroke-dasharray:none" />
    </g>
    <g
       transform="matrix(-0.3534483,-0.35365845,0.35365845,-0.3534483,189.96568,791.10081)"
       id="g5335"
       style="fill:#000000;fill-opacity:1">
      <path
         d="m 385.03125,539.84375 0,0.0312 c -1.10035,-0.027 -2.20085,-0.0376 -3.30151,-0.0312 -1.07642,0.0269 -2.153,0.0373 -3.22974,0.0312 -6.01042,0 -12.02083,0 -18.03125,0 -1.13542,0.0208 -2.27083,0.0417 -3.40625,0.0625 -0.87835,0.10389 -1.78677,0.0469 -2.625,0.375 -0.43435,0.17795 -0.94944,0.25896 -1.25,0.65625 -0.2404,0.20809 -0.26917,0.54525 -0.46875,0.78125 -0.24276,0.58315 -0.43592,1.20072 -0.375,1.83906 -0.007,1.04244 0.0714,2.08313 0.10005,3.12489 0.0474,1.20788 0.0775,2.41635 0.0874,3.62511 0.34577,4.3045 -1.04724,10.91075 3.43852,13.12637 0.8755,0.30288 1.79678,0.48012 2.72405,0.49248 1.04268,0.0603 2.08672,0.10175 3.13106,0.11678 1.69223,0.0251 3.38441,0.0626 5.07667,0.08 5.49634,-0.0438 10.9926,-0.0977 16.48899,-0.13461 2.13486,-0.0164 4.26975,-0.0243 6.40468,-0.0201 4.06826,0 8.13652,0 12.20478,0 0.71016,-0.15598 1.42958,-0.31205 2.0625,-0.6875 0.44005,-0.18415 0.7716,-0.54044 1.15625,-0.8125 0.61541,-0.73814 1.11818,-1.65597 1.03125,-2.64686 -0.0591,-0.98409 -0.44674,-1.90529 -0.7157,-2.84333 -0.34349,-1.00743 -0.66751,-2.02109 -0.9718,-3.04106 -0.27746,-1.06249 -0.58945,-2.11473 -0.9375,-3.15625 -0.53125,-1.67708 -1.0625,-3.35417 -1.59375,-5.03125 -0.43091,-1.01256 -0.8901,-2.01217 -1.375,-3 -0.70635,-0.84591 -1.41842,-1.7399 -2.37855,-2.30753 -0.67939,-0.41843 -1.48286,-0.57526 -2.27288,-0.54311 -1.05317,-0.0474 -2.10699,-0.0718 -3.16107,-0.0869 -1.55289,-0.0166 -3.10644,-0.0614 -4.65896,-0.002 -0.98864,0.015 -1.97837,-0.0242 -2.96604,0.0336 -0.0286,-0.0439 -0.15049,-0.10981 -0.1875,-0.0312 z"
         id="path5337"
         style="fill:#000000;fill-opacity:1;fill-rule:evenodd;stroke:#000000;stroke-width:0;stroke-linecap:butt;stroke-linejoin:miter;stroke-miterlimit:4;stroke-opacity:1;stroke-dasharray:none" />
      <path
         d="m 332.75,539.6875 c -0.22917,0 -0.45833,0 -0.6875,0 l -0.18032,0.03 c -1.09595,0.003 -2.19232,4.2e-4 -3.28843,10e-4 -1.125,0.0208 -2.25,0.0417 -3.375,0.0625 -1.125,0.0104 -2.25,0.0208 -3.375,0.0312 -1.11458,0 -2.22917,0 -3.34375,0 -1.66667,0.0104 -3.33333,0.0208 -5,0.0312 -1.01042,0.0104 -2.02083,0.0208 -3.03125,0.0312 -1.04167,-0.0521 -2.08333,-0.10417 -3.125,-0.15625 -1.14583,0 -2.29167,0 -3.4375,0 -1.13542,0.0208 -2.27083,0.0417 -3.40625,0.0625 -0.85417,0.0104 -1.70833,0.0208 -2.5625,0.0312 l -0.18032,0.03 -0.007,10e-4 -0.17343,0.0578 c -0.0355,0.0167 -0.0811,-0.003 -0.10782,-0.0266 l -0.0625,0 -0.125,0.125 -0.125,0.0937 -0.125,0.0625 -0.0937,0.0625 -0.0312,0.0312 -0.125,0.0937 c -0.14583,0.14583 -0.29167,0.29167 -0.4375,0.4375 -0.23958,0.33333 -0.47917,0.66667 -0.71875,1 l -0.0937,0.15625 -0.1142,0.14275 -0.0108,0.0135 c -0.16667,0.3125 -0.33333,0.625 -0.5,0.9375 -0.16667,0.35417 -0.33333,0.70833 -0.5,1.0625 -0.29167,0.79167 -0.58333,1.58333 -0.875,2.375 -0.34375,1.03125 -0.6875,2.0625 -1.03125,3.09375 -0.33333,1.09375 -0.66667,2.1875 -1,3.28125 -0.26042,0.82292 -0.52083,1.64583 -0.78125,2.46875 -0.28125,1 -0.5625,2 -0.84375,3 -0.0937,0.30208 -0.1875,0.60417 -0.28125,0.90625 -0.0417,0.41667 -0.0833,0.83333 -0.125,1.25 0.0208,0.17708 0.0417,0.35417 0.0625,0.53125 l 0.0312,0.15625 c 0.7096,2.21057 2.73329,2.74296 4.74516,3.22606 8.23988,0.0533 16.48284,0.0239 24.72359,0.0239 4.08333,0.0208 8.16667,0.0417 12.25,0.0625 0.67708,-0.0208 1.35417,-0.0417 2.03125,-0.0625 l 5.21875,-0.53125 c 0.49452,-0.17355 0.88194,-0.47674 1.21875,-0.875 0.67389,-1.05589 0.33031,-2.57218 0.28125,-3.8125 -0.0521,-2.39583 -0.10417,-4.79167 -0.15625,-7.1875 -0.0208,-2.5625 -0.0417,-5.125 -0.0625,-7.6875 -0.0104,-0.94792 -0.0208,-1.89583 -0.0312,-2.84375 -0.0521,-0.125 -0.10417,-0.25 -0.15625,-0.375 -0.10417,-0.16667 -0.20833,-0.33333 -0.3125,-0.5 l -0.1142,-0.14275 -0.0108,-0.0135 c -0.14176,-0.12085 -0.27229,-0.25521 -0.42555,-0.36223 l -0.13695,-0.10652 c -0.1875,-0.0937 -0.375,-0.1875 -0.5625,-0.28125 -0.125,-0.0208 -0.25,-0.0417 -0.375,-0.0625 -1.64583,0.0208 -3.29167,0.0417 -4.9375,0.0625 z"
         id="path5339"
         style="fill:#000000;fill-opacity:1;fill-rule:evenodd;stroke:#000000;stroke-width:0;stroke-linecap:butt;stroke-linejoin:miter;stroke-miterlimit:4;stroke-opacity:1;stroke-dasharray:none" />
    </g>
    <path
       d="m 224.46473,441.82087 c -0.5512,0.0152 -1.10253,0.0165 -1.6539,0.0161 -1.66819,0.0151 -3.33637,0.0314 -5.00459,0.0425 -0.62657,0.005 -1.25317,10e-4 -1.87975,0.002 -0.7276,9e-4 -1.45517,-0.008 -2.18276,-0.0116 -0.76041,-0.007 -1.52086,-0.003 -2.28129,-0.004 -1.21721,-3e-4 -2.43441,6.1e-4 -3.65161,-4.5e-4 -3.04766,-0.0151 -6.09532,-0.0302 -9.14298,-0.0453 -0.81692,4.8e-4 -1.63385,-9.5e-4 -2.45077,7.1e-4 -0.65626,0.005 -1.3125,0.0111 -1.96876,0.0145 -0.56249,10e-4 -1.12501,-0.002 -1.68748,10e-4 -2.57892,0.0402 -5.15783,0.0803 -7.73674,0.12051 -0.70833,0 -1.41666,0 -2.125,0 -1.05208,-0.0102 -2.10416,-0.0203 -3.15625,-0.0305 -0.55029,-0.007 -1.10035,-0.0222 -1.65017,-0.0455 -0.59057,-0.0204 -1.18113,-0.0408 -1.7717,-0.0612 -0.36656,0.0295 -0.72779,0.10517 -1.07813,0.21339 -0.17482,0.0657 -0.34551,0.14034 -0.51088,0.22632 -0.1522,0.10498 -0.31493,0.20356 -0.42662,0.35288 -0.0476,0.0566 -0.0793,0.12632 -0.14275,0.16974 -0.0587,0.0468 -0.0814,0.12212 -0.12898,0.17777 -0.0798,0.11592 -0.15901,0.23217 -0.21627,0.36071 -0.031,0.0656 -0.0804,0.1255 -0.0718,0.20312 -0.0253,0.12186 -0.0807,0.24164 -0.0652,0.36899 -0.0208,0.29468 -0.0417,0.58936 -0.0625,0.88404 0.0197,0.47831 -0.005,0.5919 0.10938,1.05932 0.17949,0.46715 0.44668,1.18489 0.59375,1.5928 0.0581,0.22131 0.12532,0.43992 0.20312,0.6554 0.16657,0.50469 0.32538,1.01209 0.51563,1.50896 0.16146,0.3963 0.32291,0.79259 0.48437,1.18888 0.2499,0.48797 0.49181,0.97996 0.74646,1.46554 0.10023,0.18534 0.20045,0.37068 0.32323,0.54308 0.0572,0.0711 0.0836,0.16888 0.17263,0.21258 0.27384,0.21462 0.53571,0.44454 0.81681,0.64989 0.25633,0.17597 0.51266,0.35193 0.769,0.52789 0.54997,0.0233 1.10017,0.0385 1.65061,0.0453 0.68859,0.005 1.37719,0.0118 2.06579,0.0156 0.57812,-7.2e-4 1.15626,10e-4 1.73437,-0.001 0.84895,-0.0106 1.69793,-0.0195 2.54686,-0.0311 0.56174,-0.008 1.12339,-0.0272 1.68517,-0.0278 0.98516,0.005 1.97032,0.0105 2.95548,0.0143 0.68228,6e-4 1.36458,-10e-4 2.04687,8.4e-4 0.55208,0.004 1.10416,0.0114 1.65625,0.0144 4.74557,0 9.49115,0 14.23672,0 2.3013,-0.01 4.6026,-0.0211 6.90391,-0.0305 0.77604,4.3e-4 1.55208,-8.5e-4 2.32812,6.2e-4 0.74479,0.005 1.48958,0.011 2.23438,0.0146 1.01562,-3.1e-4 2.03125,6.1e-4 3.04687,-4.4e-4 1.01641,-0.005 2.03281,-0.01 3.04922,-0.0148 0.23741,-0.0184 0.47721,-0.0144 0.712,-0.0572 0.27254,-0.0453 0.54856,-0.0704 0.81925,-0.12571 0.19716,-0.0866 0.41183,-0.1278 0.60455,-0.22484 0.0518,-0.0301 0.11542,-0.0391 0.16108,-0.08 0.0454,-0.0158 0.0973,-0.007 0.14062,-0.0305 0.0483,-0.0584 0.12648,-0.0809 0.18453,-0.12767 0.0762,-0.053 0.16351,-0.0916 0.2282,-0.15947 0.0968,-0.0821 0.1936,-0.16422 0.2904,-0.24633 0.0885,-0.10161 0.17708,-0.20323 0.26562,-0.30484 0.15835,-0.51494 0.30921,-1.03197 0.45214,-1.55119 0.12808,-0.48705 0.24811,-0.97599 0.36036,-1.46674 0.13542,-0.63 0.46615,-1.16514 0.60157,-1.79514 0.43787,-1.58683 0.0108,0.007 0.5491,-1.96473 0.33676,-1.138 0.22629,-0.75824 0.29241,-1.27159 0.0441,-1.32906 -0.0366,-1.69178 -0.0742,-1.95355 l -0.37436,-0.55354 c -0.37823,-0.31183 -0.74655,-0.42096 -0.90265,-0.44521 -0.6763,-6e-4 -1.2587,0.001 -1.93499,-8.3e-4 -0.53204,-0.005 -1.01435,0.018 -1.54638,0.0132 -0.28125,-0.0305 -0.70613,0.0164 -0.98738,-0.0141 -0.56771,0.005 -1.10227,-0.006 -1.66998,-0.001 z"
       id="path5341"
       style="fill:#000000;fill-opacity:1;fill-rule:evenodd;stroke:#000000;stroke-width:0;stroke-linecap:butt;stroke-linejoin:miter;stroke-miterlimit:4;stroke-opacity:1;stroke-dasharray:none" />
    <path
       d="m 154.93457,455.02815 c -1.15435,1.20439 -2.30783,2.40962 -3.46508,3.61123 -0.43407,0.45187 -0.87436,0.89772 -1.31119,1.34693 -0.50755,0.52134 -1.02202,1.03589 -1.53287,1.554 -0.53581,0.5396 -1.06406,1.08664 -1.59597,1.63008 -0.85038,0.87088 -1.6999,1.74262 -2.55081,2.61297 -2.13945,2.17053 -4.2789,4.34106 -6.41836,6.51159 -0.57024,0.58497 -1.14185,1.16861 -1.71124,1.7544 -0.45508,0.47286 -0.90875,0.94707 -1.36469,1.4191 -0.39215,0.40325 -0.78719,0.80374 -1.17761,1.20865 -1.77251,1.87367 -3.54501,3.74734 -5.31751,5.621 -0.49474,0.50692 -0.98948,1.01384 -1.48422,1.52077 -0.7421,0.74583 -1.48421,1.49166 -2.22631,2.23749 -0.38944,0.38885 -0.78441,0.77199 -1.18514,1.14917 -0.4271,0.40838 -0.85416,0.8168 -1.28124,1.22519 -0.23493,0.28292 -0.43307,0.59429 -0.60031,0.92061 -0.0751,0.17102 -0.14089,0.34528 -0.19487,0.52369 -0.0312,0.18224 -0.0743,0.36755 -0.0454,0.55178 0.007,0.0736 0.035,0.14494 0.0218,0.22072 -0.008,0.0747 0.0305,0.14357 0.0371,0.21646 0.0272,0.13808 0.0551,0.27596 0.10708,0.40672 0.0253,0.0679 0.0337,0.14519 0.0952,0.19325 0.0695,0.10323 0.11658,0.22651 0.21853,0.30438 0.19634,0.22073 0.39268,0.44146 0.58902,0.66219 0.35607,0.31996 0.41995,0.41714 0.83449,0.66161 0.45969,0.19783 1.15997,0.50792 1.55461,0.68758 0.19894,0.11302 0.40236,0.21758 0.61091,0.3124 0.47752,0.2333 0.95157,0.47405 1.44004,0.68493 0.39638,0.16125 0.79276,0.3225 1.18914,0.48374 0.52376,0.16198 1.04481,0.33249 1.57018,0.4894 0.2842,0.11438 0.59547,0.13124 0.88713,0.17293 1.4312,0.0177 2.17694,-0.51493 3.13582,-1.46186 0.4848,-0.48904 0.97036,-0.97734 1.45405,-1.46748 0.40328,-0.41423 0.80863,-0.82647 1.21059,-1.24197 0.58538,-0.61496 1.17201,-1.22872 1.75659,-1.84442 0.38663,-0.40758 0.7652,-0.82292 1.1571,-1.22544 0.69139,-0.70181 1.38368,-1.40274 2.07452,-2.10509 0.47697,-0.48786 0.95227,-0.97738 1.43024,-1.46426 0.38881,-0.39199 0.77935,-0.78226 1.16713,-1.17525 3.31457,-3.39619 6.62914,-6.79238 9.9437,-10.18857 1.60018,-1.65394 3.19958,-3.30864 4.80025,-4.9621 0.54234,-0.55508 1.08345,-1.11135 1.62653,-1.6657 0.52353,-0.52977 1.04829,-1.05832 1.57108,-1.58883 0.70915,-0.72705 1.41917,-1.45325 2.12778,-2.18081 0.70639,-0.73085 1.41277,-1.46169 2.11916,-2.19253 0.15265,-0.18274 0.32297,-0.3516 0.45636,-0.54949 0.15791,-0.22671 0.3328,-0.44172 0.48225,-0.67411 0.0757,-0.20161 0.19617,-0.38399 0.26134,-0.58969 0.0146,-0.0581 0.0526,-0.1099 0.0553,-0.17115 0.0204,-0.0436 0.0632,-0.0742 0.0764,-0.12193 -0.008,-0.0754 0.0304,-0.14705 0.0375,-0.22123 0.0153,-0.0915 0.0487,-0.18099 0.0453,-0.27469 0.009,-0.12663 0.0177,-0.25325 0.0265,-0.37988 -0.0109,-0.13433 -0.0218,-0.26868 -0.0326,-0.40301 -1.4902,-2.34956 -2.58173,-4.96481 -4.18516,-7.23635 -1.54882,-2.03763 -3.00126,-1.02295 -4.38787,0.39439 -1.40574,1.32814 -2.75434,2.71072 -4.10221,4.09649 z"
       id="path5343"
       style="fill:#000000;fill-opacity:1;fill-rule:evenodd;stroke:#000000;stroke-width:0;stroke-linecap:butt;stroke-linejoin:miter;stroke-miterlimit:4;stroke-opacity:1;stroke-dasharray:none" />
    <path
       d="m 249.51579,609.09397 c 0.38406,-0.39566 0.77786,-0.78153 1.17289,-1.16618 1.18382,-1.17544 2.36678,-2.35175 3.55341,-3.52435 0.44512,-0.44098 0.89632,-0.8758 1.34413,-1.31406 0.5203,-0.50862 1.04735,-1.01028 1.57086,-1.51558 0.54901,-0.52617 1.09063,-1.05997 1.63584,-1.59007 0.87168,-0.84957 1.74251,-1.70001 2.61471,-2.54903 2.19252,-2.11691 4.38504,-4.23382 6.57757,-6.35072 0.58454,-0.57068 1.17043,-1.13999 1.75415,-1.71151 0.46664,-0.46145 0.93191,-0.92428 1.39939,-1.38489 0.40202,-0.39341 0.80684,-0.784 1.20717,-1.17913 3.92896,-4.32338 8.54697,-7.99248 12.40475,-12.37095 1.57911,-3.67547 -3.6303,-4.91563 -6.30939,-6.06749 -0.51959,-0.1749 -1.03627,-0.35826 -1.55759,-0.52812 -0.20116,-0.0627 -0.4023,-0.12545 -0.61057,-0.16316 -1.52741,-0.26031 -2.40808,0.37944 -3.44305,1.35212 -0.49676,0.47688 -0.99426,0.95302 -1.48993,1.43103 -0.41341,0.40413 -0.82884,0.80621 -1.24096,1.21163 -0.60042,0.60028 -1.20207,1.19933 -1.80171,1.80037 -0.3966,0.39789 -0.78533,0.80373 -1.18708,1.19642 -0.70855,0.68448 -1.41797,1.36806 -2.12599,2.05309 -0.4889,0.47591 -0.97617,0.95352 -1.46605,1.42842 -0.39838,0.38224 -0.79847,0.76272 -1.19586,1.14599 -3.39762,3.31311 -6.79523,6.62621 -10.19286,9.93931 -1.64062,1.61383 -3.28049,3.22843 -4.9216,4.84177 -0.55591,0.54147 -1.11063,1.08419 -1.66726,1.62492 -0.53649,0.51665 -1.07417,1.03205 -1.60993,1.54945 -0.72692,0.70928 -1.45471,1.41768 -2.18111,2.12748 -0.72426,0.71313 -1.44852,1.42627 -2.17278,2.1394 -0.15713,0.17891 -0.33158,0.3435 -0.46982,0.53803 -0.16348,0.22273 -0.34363,0.43334 -0.49879,0.66196 -0.0807,0.19968 -0.20562,0.37902 -0.27585,0.58304 -0.0161,0.0577 -0.0554,0.10857 -0.0595,0.16973 -0.0215,0.043 -0.0651,0.0726 -0.0794,0.12001 0.006,0.0756 -0.034,0.14625 -0.043,0.22022 -0.0175,0.0911 -0.0531,0.17973 -0.052,0.27349 -0.012,0.12637 -0.024,0.25274 -0.0359,0.37911 0.021,0.67486 0.46507,1.24739 0.78188,1.82994 3.24041,5.88843 -0.003,0.0352 3.24552,5.91148 1.37705,2.32452 3.00061,1.18056 4.42754,-0.20753 0.57272,-0.58428 1.14671,-1.20184 1.78949,-1.7057 0.4029,-0.39998 0.80581,-0.79996 1.20872,-1.19994 z"
       id="path5345"
       style="fill:#000000;fill-opacity:1;fill-rule:evenodd;stroke:#000000;stroke-width:0;stroke-linecap:butt;stroke-linejoin:miter;stroke-miterlimit:4;stroke-opacity:1;stroke-dasharray:none" />
    <path
       d="m 123.14518,579.29713 c 0.39953,0.38004 0.78935,0.76991 1.17798,1.16103 1.18736,1.17187 2.37557,2.34287 3.56011,3.51758 0.44547,0.44064 0.88483,0.88741 1.3276,1.33077 0.51385,0.51513 1.02081,1.03707 1.53139,1.55545 0.5317,0.54366 1.07095,1.07985 1.60654,1.61967 0.85834,0.86304 1.71754,1.72522 2.57535,2.58879 2.13898,2.17099 4.27795,4.34198 6.41693,6.51298 0.57656,0.57875 1.15177,1.15884 1.72917,1.73675 0.46614,0.46195 0.93366,0.92252 1.39897,1.38531 0.39746,0.39802 0.79213,0.79887 1.19128,1.19518 1.84752,1.79975 3.69504,3.59949 5.54255,5.39923 0.49963,0.50211 0.99925,1.00421 1.49888,1.50632 0.73489,0.75295 1.46977,1.50589 2.20466,2.25883 0.38311,0.39509 0.76042,0.79563 1.1317,1.20183 0.40208,0.43303 0.8042,0.86602 1.2063,1.29905 0.27945,0.23904 0.58789,0.44171 0.91172,0.61372 0.16991,0.0776 0.34318,0.14593 0.52078,0.20251 0.18177,0.0338 0.36643,0.0797 0.55106,0.0535 0.0737,-0.006 0.14544,-0.0329 0.22101,-0.0185 0.0746,0.009 0.14401,-0.0284 0.21699,-0.034 0.13846,-0.0252 0.27673,-0.051 0.40823,-0.10112 0.0683,-0.0243 0.14567,-0.0315 0.19463,-0.0924 0.10424,-0.068 0.2282,-0.11324 0.30755,-0.21405 0.22358,-0.19308 0.44716,-0.38617 0.67074,-0.57926 0.32514,-0.35135 0.42325,-0.4138 0.67376,-0.82472 0.20453,-0.45674 0.52485,-1.1524 0.71026,-1.54437 0.11592,-0.19726 0.22345,-0.39913 0.32131,-0.60628 0.24027,-0.47405 0.48793,-0.94452 0.70594,-1.42985 0.16703,-0.39398 0.33406,-0.78796 0.50109,-1.18193 0.16963,-0.52133 0.34776,-1.03984 0.51234,-1.56286 0.0607,-0.20177 0.12137,-0.40354 0.15697,-0.61219 0.01,-0.0907 0.0607,-0.17839 0.0289,-0.2723 -0.041,-0.3455 -0.0627,-0.6933 -0.11546,-1.03741 -0.0561,-0.30582 -0.11214,-0.61164 -0.16822,-0.91745 -0.37139,-0.40631 -0.74868,-0.80706 -1.13213,-1.20203 -0.48188,-0.49191 -0.96302,-0.98456 -1.44603,-1.47538 -0.40828,-0.4093 -0.81455,-0.82064 -1.22412,-1.22864 -0.60632,-0.59431 -1.21143,-1.18987 -1.8185,-1.7834 -0.40188,-0.39256 -0.81164,-0.77716 -1.20837,-1.17492 -0.69161,-0.70159 -1.38233,-1.40406 -2.07449,-2.10511 -0.48083,-0.48406 -0.96334,-0.96647 -1.44318,-1.45153 -0.38625,-0.39449 -0.77076,-0.79071 -1.15803,-1.1842 -3.3473,-3.36393 -6.69461,-6.72786 -10.04191,-10.09179 -1.63034,-1.62422 -3.26145,-3.24767 -4.8913,-4.87237 -0.54708,-0.55041 -1.09537,-1.09961 -1.64171,-1.65075 -0.52205,-0.53123 -1.04287,-1.06367 -1.56566,-1.59416 -0.71659,-0.71972 -1.43232,-1.44029 -2.14943,-2.15948 -0.72043,-0.71701 -1.44085,-1.43401 -2.16128,-2.15102 -0.18048,-0.15532 -0.34683,-0.3281 -0.54275,-0.46436 -0.22437,-0.16122 -0.43679,-0.33923 -0.66697,-0.49207 -0.20048,-0.0786 -0.38108,-0.20178 -0.58581,-0.26994 -0.0578,-0.0155 -0.10911,-0.0543 -0.17031,-0.0578 -0.0433,-0.0211 -0.0733,-0.0643 -0.1208,-0.0782 -0.0755,0.007 -0.14659,-0.0326 -0.22066,-0.0408 -0.0913,-0.0166 -0.18026,-0.0513 -0.274,-0.0493 -0.12648,-0.0107 -0.25296,-0.0214 -0.37945,-0.0321 -0.13448,0.009 -0.26897,0.0178 -0.40345,0.0267 -0.47671,0.25097 -0.94961,0.50872 -1.41848,0.77363 -1.54841,0.94817 -3.18833,1.72377 -4.77073,2.61551 -1.05526,0.66341 -0.64185,0.41861 -1.10762,0.68964 -0.97324,0.90617 -1.25486,1.16495 -1.28959,1.47052 l 0.0161,0.75708 c 0.0425,0.15939 0.0878,0.54268 0.17312,0.7268 0.47661,0.47982 0.95489,0.95799 1.43051,1.43878 0.37186,0.38053 0.74373,0.76105 1.11559,1.14158 0.17678,0.22086 0.35355,0.44173 0.53032,0.6626 0.40404,0.39884 0.80807,0.79768 1.21211,1.19652 z"
       id="path5347"
       style="fill:#000000;fill-opacity:1;fill-rule:evenodd;stroke:#000000;stroke-width:0;stroke-linecap:butt;stroke-linejoin:miter;stroke-miterlimit:4;stroke-opacity:1;stroke-dasharray:none" />
    <path
       d="m 151.35982,537.92199 c 0,0 -0.87054,-0.22321 -1.18304,-2.03125 -0.14526,-0.84044 0.3125,-7.45536 0.35714,-8.39286 0.0446,-0.9375 -0.17857,-2.03571 -0.35714,-2.75 -0.17857,-0.71428 -1.07143,-1.49107 0.44643,-2.42857 1.51786,-0.9375 2.08929,-0.91071 2.08929,-0.91071 0,0 2.73214,-0.25 3.26785,-0.29464 0.53572,-0.0446 5.44643,0.35714 6.02679,0.40178 0.58036,0.0446 5.20536,0.67857 5.20536,3.9375 0,3.25893 -1.18751,5.79464 -1.90179,6.95536 -0.71429,1.16071 -5.98214,5.35714 -7.36607,5.71428 -1.38393,0.35715 -4.90573,0.33359 -6.58482,-0.20089 z"
       id="path5353"
       style="fill:#fbfbfb;fill-opacity:1;fill-rule:evenodd;stroke:#ffffff;stroke-width:0.5;stroke-linecap:butt;stroke-linejoin:miter;stroke-miterlimit:4;stroke-opacity:1;stroke-dasharray:none" />
    <path
       d="m 155.79285,533.4086 c 0,0 -0.4375,-7.25 -0.125,-7.6875 0.3125,-0.4375 2.5625,-1.8125 3.6875,-1.5625 1.125,0.25 3.5625,0.6875 4.125,3 0.5625,2.3125 -3.69,6.03512 -4.6875,6.4375 -2.86574,1.15602 -3.125,-0.3125 -3,-0.1875 z"
       id="path5355"
       style="fill:#030303;fill-opacity:1;fill-rule:evenodd;stroke:#000000;stroke-width:0.5px;stroke-linecap:butt;stroke-linejoin:miter;stroke-opacity:1" />
    <path
       d="m 170.60535,522.0961 c 0,15.0625 0.0312,15.4375 0.0312,15.4375 0,0 1.53125,0.75 1.96875,0.375 0.4375,-0.375 1.08982,-1.4236 1.375,-3.5625 0.125,-0.9375 0.375,-2.0625 0.375,-2.0625 0,0 0.8125,-0.4375 1.8125,-0.3125 1,0.125 2.125,0.125 2.125,0.125 l 0.4375,0.71875 c 0,0 0.34375,4.65625 0.71875,4.84375 0.375,0.1875 1.59375,0.40625 1.59375,0.40625 0,0 0.6875,-0.15625 1.0625,-1.34375 0.375,-1.1875 1.21875,-9.90625 1.21875,-9.90625 0,0 -0.28125,-4.78125 -0.59375,-4.78125 -0.3125,0 -0.5,-0.3125 -1.3125,-0.3125 -0.8125,0 -1.75,-0.15625 -2,0.21875 -0.25,0.375 -0.8125,4.28125 -0.8125,4.28125 0,0 -0.5625,1.5625 -0.8125,1.6875 -0.25,0.125 -2.375,0.125 -2.375,0.125 l -1.5,-0.25 c 0,0 -0.0625,-3.625 0,-4.375 0.0625,-0.75 -0.4375,-2.3125 -0.8125,-2.1875 -0.375,0.125 -1.625,0.1875 -1.625,0.1875 l -0.875,0.6875 z"
       id="path5359"
       style="fill:#ffffff;fill-opacity:1;fill-rule:evenodd;stroke:#000000;stroke-width:0;stroke-linecap:butt;stroke-linejoin:miter;stroke-miterlimit:4;stroke-opacity:1;stroke-dasharray:none" />
    <path
       d="m 193.2616,520.55563 c -0.52515,0.24062 -0.41666,0.14603 -0.72618,0.48156 -0.37438,0.40583 -0.59437,0.93116 -0.85617,1.41775 -0.27118,0.47593 -0.50771,0.93171 -0.74443,1.42527 -0.24217,0.50913 -0.45227,1.07331 -0.72552,1.56698 -0.33152,0.6299 -0.8193,1.22855 -1.15082,1.85844 -0.68035,1.37861 -1.32614,2.72759 -2,4.10938 -0.24933,0.48466 -0.3809,1.03167 -0.55885,1.54807 -0.18442,0.51514 -0.33864,1.04001 -0.49234,1.56492 -0.15116,0.53333 -0.32127,1.0638 -0.41974,1.60992 -0.0922,0.40505 -0.17924,0.83021 -0.0752,1.24202 0.0267,0.20656 0.1225,0.39252 0.2024,0.58194 l 0.0156,-0.0312 c 0.0458,0.0145 0.0944,0.0451 0.10938,0.0937 0.54919,0.1 1.11007,0.0939 1.66389,0.0397 0.15459,-0.0101 0.30732,-0.0377 0.46111,-0.0553 0.32716,-0.38754 0.69825,-0.7133 0.96875,-1.14063 0.31222,-0.43081 0.52656,-0.97538 0.8151,-1.42168 0.27144,-0.46516 0.47672,-0.95958 0.80002,-1.39022 0.0792,-0.11962 0.18471,-0.21832 0.2755,-0.32872 0.25176,-0.10061 0.53131,-0.0404 0.79437,-0.0835 0.56089,-0.0424 1.12307,-0.005 1.68528,-0.0136 0.56251,-0.006 1.125,-0.0292 1.68751,-0.0247 0.56833,0.0134 1.15293,0.0285 1.72088,0.0504 0.423,0.0489 0.68405,0.0626 1.08434,0.22171 0.2029,0.12424 0.35418,0.27134 0.52762,0.42787 0.3717,0.46951 0.81029,0.88872 1.16927,1.36812 0.502,0.65768 1.07983,1.31711 1.58073,1.97563 0.1007,0.13443 0.22959,0.26501 0.40625,0.28125 0.4347,0.076 0.93075,0.12866 1.3125,-0.14062 0.14885,-0.33075 0.0881,-0.70441 0.0156,-1.04688 -0.0441,-0.38119 -0.1147,-0.7605 -0.19767,-1.13456 -0.0779,-0.30977 -0.26895,-0.57503 -0.39608,-0.86544 -0.72654,-1.39031 -1.46652,-2.77356 -2.19897,-4.16076 -0.26914,-0.48246 -0.38092,-0.98929 -0.64255,-1.47561 -0.41741,-0.73368 -0.84722,-1.46029 -1.26509,-2.19368 -0.27175,-0.48337 -0.64021,-0.97352 -0.89339,-1.46682 -0.24337,-0.46113 -0.6126,-0.83876 -0.86432,-1.29525 -0.80002,-1.33412 -1.33918,-2.20915 -2.25287,-3.46257 l -0.83594,-0.13281 z"
       id="path5465"
       style="fill:#ffffff;fill-opacity:1;fill-rule:evenodd;stroke:#ffffff;stroke-width:0.30000001;stroke-linecap:butt;stroke-linejoin:miter;stroke-miterlimit:4;stroke-opacity:1;stroke-dasharray:none" />
    <path
       d="m 192.10535,529.00235 c 0,0 1.21875,-2.875 1.375,-2.84375 0.15625,0.0312 1,1.67187 1.48438,2.60937 0.0642,0.12416 0.51562,0.64063 0.20312,0.67188 -0.3125,0.0312 -2.90625,0.1875 -3.03125,-0.0312 -0.125,-0.21875 0,-0.53125 0,-0.53125"
       id="path5467"
       style="fill:#000000;fill-opacity:1;fill-rule:evenodd;stroke:#000000;stroke-width:0;stroke-linecap:butt;stroke-linejoin:miter;stroke-miterlimit:4;stroke-opacity:1;stroke-dasharray:none" />
    <path
       d="m 204.1366,538.1586 c 0,0 -0.75,-1.03125 -0.65625,-5.8125 0.0937,-4.78125 0.1875,-8.78125 0.65625,-9.625 0.46875,-0.84375 1.0625,-0.9375 1.21875,-0.9375 0.15625,0 3.1875,0.0312 3.46875,0.0312 0.28125,0 6.34375,0.125 6.59375,0.125 0.25,0 2.0625,0.28125 2.53125,1.90625 0.46875,1.625 0.9375,3.53125 -0.3125,4.59375 -1.25,1.0625 -2.35503,1.40531 -2.40625,2.09375 -0.0993,1.33468 0.0312,1.84375 0.78125,2.46875 1.05412,0.87843 2.83164,1.71159 3.71875,2.40625 0.358,0.28033 0.4375,1.65625 -0.65625,2.65625 -1.05387,0.96354 -1.5,0.46875 -5.125,-2.375 -3.625,-2.84375 -3.3125,-2.875 -3.96875,-2.9375 -0.65625,-0.0625 -2.40625,-0.34375 -2.65625,0.34375 -0.25,0.6875 -0.1875,4.34375 -0.46875,4.75 -0.28125,0.40625 -1.53125,1 -2.03125,0.9375 -0.5,-0.0625 -0.65625,-0.53125 -0.6875,-0.625 z"
       id="path5469"
       style="fill:#ffffff;fill-opacity:1;fill-rule:evenodd;stroke:#ffffff;stroke-width:0.5;stroke-linecap:butt;stroke-linejoin:miter;stroke-miterlimit:4;stroke-opacity:1;stroke-dasharray:none" />
    <path
       d="m 207.6991,524.37735 c 0,0 -0.15625,2.75 0.25,2.9375 0.40625,0.1875 5.15625,0.25 5.625,-0.0312 0.46875,-0.28125 1.1875,-0.78125 0.78125,-1.5 -0.40625,-0.71875 -0.46875,-1.46875 -1.5,-1.5 -1.03125,-0.0312 -3.0625,-0.53125 -5.15625,0.0937 z"
       id="path5471"
       style="fill:#000000;fill-opacity:1;fill-rule:evenodd;stroke:#000000;stroke-width:0;stroke-linecap:butt;stroke-linejoin:miter;stroke-miterlimit:4;stroke-opacity:1;stroke-dasharray:none" />
    <path
       d="m 222.48035,537.56485 c 0,-13.09375 -0.21875,-12.3125 0.125,-13.125 0.34375,-0.8125 1.0625,-1.28125 1.625,-1.09375 0.5625,0.1875 5.40625,5.09375 5.9375,5.3125 0.53125,0.21875 1.4375,0.21875 1.84375,-0.0937 0.40625,-0.3125 4.46875,-4.6875 4.96875,-4.96875 0.5,-0.28125 0.625,-0.40625 1.0625,-0.28125 0.4375,0.125 0.96875,0.6875 1.09375,1.28125 0.125,0.59375 0.375,12.4375 0.21875,12.71875 -0.15625,0.28125 -0.375,0.3125 -1.1875,0.28125 -0.8125,-0.0312 -1.125,0.15625 -1.40625,-0.0625 -0.28125,-0.21875 -0.3125,-4.375 -0.59375,-5.1875 -0.28125,-0.8125 -1.0625,-0.96875 -1.28125,-0.8125 -0.21875,0.15625 -2.34375,3.125 -2.8125,3.21875 -0.46875,0.0937 -1.59375,-0.125 -1.78125,-0.25 -0.1875,-0.125 -1.4375,-3.21875 -2.09375,-3.4375 -0.65625,-0.21875 -1.6875,0.21875 -1.78125,0.34375 -0.0937,0.125 -0.5625,4.90625 -0.71875,5.28125 -0.15625,0.375 -0.96875,1.625 -1.4375,1.78125 -0.46875,0.15625 -1.71875,-0.5625 -1.71875,-0.5625 l -0.0625,-0.34375 z"
       id="path5473"
       style="fill:#fefefe;fill-opacity:1;fill-rule:evenodd;stroke:#ffffff;stroke-width:0.5px;stroke-linecap:butt;stroke-linejoin:miter;stroke-opacity:1" />
    <path
       d="m 258.48035,535.62735 c -0.34375,-0.9375 -1.5625,-3.46875 -2.40625,-5.15625 -0.84375,-1.6875 -4.25,-7.3125 -4.75,-7.59375 -0.5,-0.28125 -1.71875,-1.0625 -1.96875,-1.09375 -0.25,-0.0312 -1.5625,0.5625 -3.0625,2.40625 -1.5,1.84375 -1.625,2.46875 -3.15625,6.5 -1.53125,4.03125 -1.69156,3.52564 -1.65625,4.375 0.0246,0.5919 0.84375,1.90625 1.28125,1.9375 0.4375,0.0312 0.8125,0.53125 1.59375,-0.5625 0.78125,-1.09375 1.90625,-3.21875 2.53125,-3.6875 0.625,-0.46875 1.46875,-0.40625 3.71875,-0.5625 2.12081,-0.14728 3.00133,-0.19004 3.59375,1.46875 0.625,1.75 1.5,4.0625 2.28125,4.09375 0.78125,0.0312 2.1875,-0.1875 2.125,-1.1875 -0.0625,-1 -0.15625,-1 -0.125,-0.9375 z"
       id="path5475"
       style="fill:#fefefe;fill-opacity:1;fill-rule:evenodd;stroke:#ffffff;stroke-width:0.5px;stroke-linecap:butt;stroke-linejoin:miter;stroke-opacity:1" />
    <path
       d="m 247.72323,528.66397 c 0,0 1.60884,-2.875 1.79106,-2.84375 0.18223,0.0312 1.29123,1.48438 1.85612,2.42188 0.0748,0.12416 0.28884,0.82812 -0.0756,0.85937 -0.36444,0.0312 -3.38934,0.1875 -3.53512,-0.0312 -0.14578,-0.21875 0,-0.53125 0,-0.53125"
       id="path5477"
       style="fill:#000000;fill-opacity:1;fill-rule:evenodd;stroke:#000000;stroke-width:0;stroke-linecap:butt;stroke-linejoin:miter;stroke-miterlimit:4;stroke-opacity:1;stroke-dasharray:none" />
  </g>
</svg>
