<?xml version="1.0" encoding="iso-8859-1"?>
<!-- Generator: Adobe Illustrator 19.0.0, SVG Export Plug-In . SVG Version: 6.00 Build 0)  -->
<svg version="1.1" id="Capa_1" xmlns="http://www.w3.org/2000/svg" xmlns:xlink="http://www.w3.org/1999/xlink" x="0px" y="0px"
	 viewBox="0 0 512 512" style="enable-background:new 0 0 512 512;" xml:space="preserve">
<g>
	<g>
		<path d="M276,190c-5.52,0-10,4.48-10,10s4.48,10,10,10c5.52,0,10-4.48,10-10S281.52,190,276,190z"/>
	</g>
</g>
<g>
	<g>
		<path d="M236,190c-5.52,0-10,4.48-10,10s4.48,10,10,10s10-4.48,10-10S241.52,190,236,190z"/>
	</g>
</g>
<g>
	<g>
		<path d="M212.75,110h-13.5c-18.334,0-33.25,14.916-33.25,33.25v4.5c0,19.289,15.851,33.279,33.14,33.279
			c8.254,0,12.654-2.762,24.126-6.24C236.875,170.262,246,157.535,246,143.25C246,124.916,231.084,110,212.75,110z M216.954,155.811
			c-0.001,0.001-0.003,0.001-0.004,0.002l-13.512,4.501c-8.605,2.867-17.437-3.53-17.437-12.563v-4.501H186
			c0-7.306,5.944-13.25,13.25-13.25h13.5c7.306,0,13.25,5.944,13.25,13.25C226,148.841,222.443,153.986,216.954,155.811z"/>
	</g>
</g>
<g>
	<g>
		<path d="M312.75,110h-13.5c-18.376,0-33.25,14.87-33.25,33.25c0,14.322,9.131,26.995,22.73,31.537l13.508,4.499
			C323.734,186.454,346,170.518,346,147.75v-4.5C346,124.916,331.084,110,312.75,110z M326,147.75
			c0,9.053-8.849,15.425-17.437,12.563c-0.001-0.001-0.002-0.001-0.003-0.001l-13.503-4.497c-5.417-1.811-9.058-6.859-9.058-12.565
			C286,135.926,291.926,130,299.25,130h13.5c7.306,0,13.25,5.944,13.25,13.25V147.75z"/>
	</g>
</g>
<g>
	<g>
		<path d="M433.419,392.83c-13.623-2.563-29.964,1.563-39.771,15.521L332.158,382l61.589-26.395
			C401.139,365.799,412.963,372,426,372c22.056,0,40-17.944,40-40c0-14.571-8.021-27.751-20.358-34.721
			C448.878,273.508,430.249,252,406,252c-26.769,0-45.317,25.777-38.658,49.645l-111.341,47.716l-111.438-47.757
			C151.335,276.382,131.828,252,106,252c-24.272,0-42.881,21.537-39.641,45.279c-31.36,17.71-25.883,66.727,12.223,73.891
			c13.624,2.563,29.962-1.563,39.771-15.521L179.842,382l-61.589,26.395C110.861,398.2,99.037,392,86,392c-22.056,0-40,17.944-40,40
			c0,14.572,8.019,27.752,20.359,34.721C63.116,490.488,81.751,512,106,512c26.351,0,45.43-25.361,38.659-49.645l111.34-47.716
			l111.438,47.757C360.669,487.596,380.152,512,406,512c24.283,0,42.875-21.535,39.642-45.279
			C476.982,449.017,471.549,399.999,433.419,392.83z M117.839,333.669c-5.177-2.221-11.2,0.281-13.256,5.561
			c-4.417,11.332-14.777,13.699-22.306,12.285c-21.492-4.042-21.414-33.3-1.467-38.713c5.765-1.565,8.886-7.812,6.666-13.365
			C82.109,286.027,92.11,272,106,272c14.414,0,25.444,15.462,16.953,29.819c-3.077,5.203-0.864,11.912,4.668,14.282l102.993,44.139
			l-25.386,10.879L117.839,333.669z M127.621,447.898c-5.539,2.374-7.745,9.09-4.663,14.291C131.5,476.6,120.295,492,106,492
			c-13.867,0-23.901-14.004-18.525-27.437c2.218-5.548-0.896-11.799-6.666-13.365C72.09,448.833,66,440.938,66,432
			c0-11.028,8.972-20,20-20c8.263,0,15.557,5.014,18.583,12.772c2.052,5.263,8.059,7.786,13.255,5.559L384.38,316.102
			c5.539-2.374,7.745-9.09,4.663-14.291C380.498,287.402,391.704,272,406,272c13.893,0,23.892,14.029,18.525,27.435
			c-2.22,5.546,0.894,11.8,6.665,13.367C439.91,315.168,446,323.063,446,332c0,11.028-8.972,20-20,20
			c-8.263,0-15.558-5.014-18.584-12.773c-2.051-5.261-8.057-7.784-13.256-5.558l-91.33,39.14L127.621,447.898z M431.191,451.198
			c-2.754,0.748-5.057,2.636-6.33,5.189c-1.273,2.553-1.395,5.528-0.335,8.178C429.882,477.946,419.92,492,406,492
			c-14.415,0-25.445-15.462-16.952-29.819c3.078-5.205,0.861-11.913-4.668-14.282L281.386,403.76l25.385-10.879l87.389,37.45
			c5.178,2.221,11.198-0.28,13.257-5.56c4.416-11.332,14.774-13.701,22.307-12.286C451.216,416.527,451.139,445.785,431.191,451.198
			z"/>
	</g>
</g>
<g>
	<g>
		<path d="M386,110C386,38.045,327.919,0,256,0c-71.979,0-130,38.097-130,110c0,15.81,2.936,39.238,8.427,55.604
			C129.013,172.575,126,181.162,126,190c0,26.409,25.752,45.827,51.044,38.321l6.619,0.006c1.491,1.736,2.337,3.974,2.337,6.333V266
			c0,16.542,13.458,30,30,30h80c16.542,0,30-13.458,30-30v-32.13c0-2.003,0.72-3.892,1.994-5.364l7.712,0.012
			C360.851,235.434,386,216.177,386,190c0-8.839-3.013-17.425-8.427-24.396C383.065,149.238,386,125.81,386,110z M359.333,175.237
			C363.632,179.125,366,184.368,366,190c0,13.357-13.099,22.918-25.912,18.964c-0.95-0.293-1.938-0.442-2.933-0.444
			c-10.986,0.35-14.105-0.992-18.094,1.55c-8.178,5.218-13.061,14.116-13.061,23.8V266c0,5.514-4.486,10-10,10h-10v-36
			c0-5.522-4.478-10-10-10c-5.522,0-10,4.478-10,10v36h-20v-36c0-5.522-4.478-10-10-10c-5.523,0-10,4.478-10,10v36h-10
			c-5.514,0-10-4.486-10-10v-31.34c0-15.288-11.736-26.323-18.652-26.33c-0.143,0-11.939-0.01-11.838-0.01
			c-4.119,0-7.312,3.425-15.861,0.505c-0.148-0.05-0.296-0.097-0.446-0.14C151.299,205.808,146,198.318,146,190
			c0-5.632,2.368-10.875,6.667-14.763c3.185-2.88,4.175-7.47,2.462-11.407C149.415,150.699,146,126.148,146,110
			c0-66.357,56.823-90,110-90c53.178,0,110,23.643,110,90c0,16.148-3.415,40.699-9.129,53.83
			C355.157,167.767,356.148,172.357,359.333,175.237z"/>
	</g>
</g>
<g>
</g>
<g>
</g>
<g>
</g>
<g>
</g>
<g>
</g>
<g>
</g>
<g>
</g>
<g>
</g>
<g>
</g>
<g>
</g>
<g>
</g>
<g>
</g>
<g>
</g>
<g>
</g>
<g>
</g>
</svg>
