<svg height="512pt" viewBox="0 0 512 512" width="512pt" xmlns="http://www.w3.org/2000/svg"><path d="m465.984375 319.363281c-24.878906-16.867187-58.417969-30.339843-97.601563-39.28125 6.417969-13.023437 10.601563-27.144531 12.199219-41.707031 3.097657-28.246094-3.605469-57.003906-18.867187-80.972656l-97.28125-152.773438c-1.835938-2.882812-5.015625-4.628906-8.433594-4.628906s-6.597656 1.746094-8.433594 4.628906l-97.28125 152.773438c-15.261718 23.96875-21.964844 52.726562-18.867187 80.976562 1.597656 14.558594 5.78125 28.679688 12.199219 41.707032-39.183594 8.9375-72.722657 22.410156-97.601563 39.277343-30.105469 20.410157-46.015625 44.835938-46.015625 70.636719 0 34.066406 27.667969 65.425781 77.90625 88.296875 47.738281 21.734375 110.984375 33.703125 178.09375 33.703125s130.355469-11.96875 178.09375-33.703125c50.238281-22.871094 77.90625-54.230469 77.90625-88.296875 0-25.800781-15.910156-50.226562-46.015625-70.636719zm-298.828125-151.21875 88.84375-139.527343 88.84375 139.527343c22.457031 35.265625 21.867188 78.9375.242188 112.867188-.3125.40625-.601563.832031-.847657 1.292969-3.933593 5.976562-8.515625 11.644531-13.761719 16.890624-10.144531 10.144532-21.996093 17.960938-34.90625 23.1875-.28125.097657-.558593.210938-.828124.332032-12.171876 4.808594-25.261719 7.332031-38.742188 7.332031-28.132812 0-54.585938-10.957031-74.476562-30.851563-5.246094-5.246093-9.828126-10.914062-13.757813-16.890624-.25-.460938-.539063-.890626-.855469-1.300782-21.621094-33.925781-22.210937-77.59375.246094-112.859375zm258.648438 291.949219c-45.191407 20.574219-105.496094 31.90625-169.804688 31.90625s-124.613281-11.332031-169.804688-31.90625c-42.066406-19.152344-66.195312-44.699219-66.195312-70.09375 0-38.222656 53.769531-74.734375 134.492188-91.828125 3.878906 5.367187 8.171874 10.453125 12.886718 15.167969 5.128906 5.128906 10.625 9.753906 16.425782 13.859375-16.082032 3.960937-30.183594 9.230469-41.542969 15.601562-24.996094 14.019531-30.242188 29.621094-30.242188 40.238281 0 10.601563 5.226563 26.179688 30.140625 40.1875 17.101563 9.613282 40.414063 16.75 67.414063 20.632813.484375.070313.964843.101563 1.4375.101563 4.890625 0 9.167969-3.59375 9.886719-8.574219.785156-5.46875-3.007813-10.539063-8.476563-11.324219-52.226563-7.507812-80.40625-26.738281-80.40625-41.019531 0-14.25 28.003906-33.382813 79.902344-40.941407 13.90625 5.214844 28.785156 7.945313 44.082031 7.945313 15.292969 0 30.164062-2.730469 44.070312-7.941406 51.914063 7.550781 79.910157 26.585937 79.910157 40.9375 0 14.28125-28.179688 33.511719-80.40625 41.019531-5.464844.785156-9.257813 5.855469-8.472657 11.320312.714844 4.984376 4.992188 8.578126 9.882813 8.578126.476563 0 .957031-.03125 1.4375-.101563 27.003906-3.882813 50.316406-11.019531 67.417969-20.632813 24.914062-14.007812 30.140625-29.585937 30.140625-40.1875 0-10.734374-5.355469-26.492187-30.867188-40.585937-11.265625-6.222656-25.136719-11.375-40.914062-15.257813 5.800781-4.105468 11.292969-8.730468 16.417969-13.855468 4.714843-4.714844 9.011718-9.800782 12.886718-15.171875 80.726563 17.097656 134.496094 53.609375 134.496094 91.832031 0 25.394531-24.128906 50.941406-66.195312 70.09375zm0 0"/><path d="m256 427.089844c-2.628906 0-5.210938 1.058594-7.070312 2.921875-1.859376 1.859375-2.929688 4.4375-2.929688 7.078125 0 2.628906 1.070312 5.199218 2.929688 7.070312 1.859374 1.859375 4.441406 2.929688 7.070312 2.929688s5.210938-1.070313 7.070312-2.929688c1.859376-1.871094 2.929688-4.441406 2.929688-7.070312 0-2.640625-1.070312-5.210938-2.929688-7.078125-1.859374-1.863281-4.441406-2.921875-7.070312-2.921875zm0 0"/></svg>