<svg height="478pt" viewBox="-56 0 478 478.59935" width="478pt" xmlns="http://www.w3.org/2000/svg"><path d="m183.28125 478.597656c100.847656-.027344 182.929688-77.988281 182.964844-173.785156 0-41.097656-36.882813-100.558594-78.015625-163.0625-31.421875-47.019531-96.175781-136.707031-96.832031-137.605469-1.714844-2.375-4.378907-3.875-7.296876-4.113281-2.917968-.234375-5.792968.820312-7.867187 2.886719-2.445313 2.441406-71.976563 100.054687-97.933594 138.890625-41.097656 62.445312-78 121.902344-78 163 0 95.800781 82.125 173.761718 182.980469 173.789062zm-88.289062-325.734375c24.476562-36.625 69.851562-100.117187 88.292968-125.765625 18.414063 25.621094 63.707032 88.933594 88.28125 125.707032 29.742188 45.195312 74.691406 113.496093 74.691406 152.003906-.03125 84.773437-73.132812 153.765625-162.957031 153.789062-89.828125-.023437-162.929687-69.015625-162.960937-153.785156.003906-38.511719 44.949218-106.8125 74.652344-151.949219zm0 0"/><path d="m239.269531 394.246094c2.128907 0 4.199219-.683594 5.914063-1.945313 18.425781-13.46875 34.074218-30.375 46.078125-49.789062 2.898437-4.699219 1.4375-10.859375-3.261719-13.761719-4.703125-2.898438-10.863281-1.4375-13.761719 3.261719-10.65625 17.226562-24.546875 32.226562-40.902343 44.171875-3.480469 2.5625-4.925782 7.070312-3.574219 11.179687 1.347656 4.105469 5.183593 6.882813 9.507812 6.878907zm0 0"/></svg>