<svg height="458pt" viewBox="0 -36 458.104 458" width="458pt" xmlns="http://www.w3.org/2000/svg"><path d="m236.921875 103.453125h-226.921875c-5.523438 0-10 4.476563-10 10s4.476562 10 10 10h226.921875c34.078125-.046875 61.664063-27.710937 61.613281-61.785156-.046875-34.078125-27.707031-61.66406275-61.785156-61.6171878-5.523438 0-10 4.4765628-10 9.9999998 0 5.523438 4.476562 10 10 10 23.03125-.046875 41.738281 18.585938 41.785156 41.617188.050782 23.027343-18.582031 41.738281-41.613281 41.785156zm0 0"/><path d="m10 169.453125h339.941406c33.925782-.046875 61.390625-27.589844 61.34375-61.515625-.050781-33.925781-27.589844-61.386719-61.515625-61.339844-5.523437 0-10 4.476563-10 10 0 5.519532 4.476563 10 10 10 22.878907-.046875 41.464844 18.460938 41.515625 41.339844.046875 22.882812-18.464844 41.46875-41.34375 41.515625h-339.941406c-5.523438 0-10 4.476563-10 10s4.476562 10 10 10zm0 0"/><path d="m396.664062 205.453125h-386.664062c-5.523438 0-10 4.476563-10 10s4.476562 10 10 10h386.664062c22.882813-.003906 41.4375 18.542969 41.441407 41.425781 0 22.882813-18.546875 41.433594-41.425781 41.4375-5.523438 0-10 4.476563-10 10 0 5.523438 4.476562 10 10 10 33.925781-.003906 61.425781-27.511718 61.425781-61.4375-.003907-33.929687-27.511719-61.429687-61.441407-61.425781zm0 0"/><path d="m198.886719 262.453125h-188.886719c-5.523438 0-10 4.476563-10 10s4.476562 10 10 10h188.886719c14.824219-.105469 28.570312 7.742187 36.015625 20.566406 7.445312 12.820313 7.449218 28.648438.003906 41.476563-7.441406 12.824218-21.183594 20.675781-36.011719 20.574218-5.519531 0-10 4.476563-10 10 0 5.523438 4.480469 10 10 10 21.988281.125 42.359375-11.535156 53.386719-30.558593 11.027344-19.019531 11.027344-42.492188-.003906-61.511719-11.035156-19.019531-31.40625-30.675781-53.390625-30.546875zm0 0"/></svg>